<?xml version="1.0" encoding="utf-8"?>
<!-- Generator: Adobe Illustrator 25.0.1, SVG Export Plug-In . SVG Version: 6.00 Build 0)  -->
<svg version="1.1" id="Layer_1" xmlns="http://www.w3.org/2000/svg" xmlns:xlink="http://www.w3.org/1999/xlink" x="0px" y="0px"
	 viewBox="0 0 153.5 32.6" style="enable-background:new 0 0 153.5 32.6;" xml:space="preserve">
<style type="text/css">
	.st0{fill:#050505;}
	.st1{fill:#020202;}
	.st2{fill:#FDFCFC;}
	.st3{opacity:0.3;enable-background:new    ;}
	.st4{fill:#FFFFFF;}
	.st5{fill:#FBFDFE;}
	.st6{fill:#F8FBFD;}
	.st7{opacity:0.4;}
</style>
<g>
	<path d="M16.3,32.6h120.8c9,0,16.3-7.3,16.3-16.3l0,0c0-9-7.3-16.3-16.3-16.3H16.3C7.3,0,0,7.3,0,16.3l0,0
		C0,25.3,7.3,32.6,16.3,32.6z"/>
	<g>
		<path class="st4" d="M31.5,19.9h-1c-0.1,0-0.1,0-0.2-0.1s-0.1-0.1-0.2-0.2c-0.1-0.1-0.1-0.2-0.1-0.2s-0.1-0.2-0.1-0.2l-0.6-1.6
			h-3.8l-0.6,1.6c0,0.1-0.1,0.1-0.1,0.2c0,0.1-0.1,0.2-0.2,0.2s-0.1,0.1-0.2,0.2c-0.1,0.1-0.1,0.1-0.2,0.1h-1l3.5-8.5H28L31.5,19.9z
			 M29,16.7l-1-2.6c-0.1-0.2-0.2-0.5-0.3-0.8s-0.2-0.5-0.3-0.8c-0.1,0.3-0.2,0.6-0.3,0.8s-0.2,0.5-0.3,0.8l-1,2.6L29,16.7L29,16.7z"
			/>
		<path class="st4" d="M33.4,14.7c0.3-0.3,0.6-0.5,0.9-0.7s0.7-0.3,1.2-0.3c0.7,0,1.2,0.2,1.5,0.6c0.3,0.4,0.5,1,0.5,1.7v3.9h-1.2
			V16c0-0.4-0.1-0.8-0.3-1c-0.2-0.2-0.5-0.4-0.9-0.4c-0.3,0-0.6,0.1-0.8,0.2c-0.3,0.2-0.5,0.4-0.7,0.6v4.5h-1.2v-6.1H33
			c0.2,0,0.3,0.1,0.3,0.2L33.4,14.7z"/>
		<path class="st4" d="M44.2,11.2l0,8.8h-0.7c-0.2,0-0.3-0.1-0.3-0.2L43.1,19c-0.2,0.3-0.6,0.6-0.9,0.8S41.5,20,41.1,20
			c-0.7,0-1.2-0.3-1.7-0.8s-0.6-1.3-0.6-2.3c0-0.5,0.1-0.9,0.2-1.2c0.1-0.4,0.3-0.7,0.5-1c0.2-0.3,0.5-0.5,0.8-0.7s0.7-0.2,1.1-0.2
			c0.4,0,0.7,0.1,0.9,0.2s0.5,0.3,0.7,0.5l0-3.3L44.2,11.2L44.2,11.2z M43,15.3c-0.2-0.3-0.4-0.5-0.6-0.5c-0.2-0.1-0.5-0.1-0.7-0.1
			c-0.6,0-1,0.2-1.3,0.6c-0.3,0.4-0.4,1-0.4,1.7c0,0.8,0.1,1.4,0.4,1.7c0.3,0.3,0.6,0.5,1.1,0.5c0.3,0,0.6-0.1,0.9-0.2
			c0.3-0.1,0.5-0.4,0.7-0.7C43,18.2,43,15.3,43,15.3z"/>
		<path class="st4" d="M47,15.1c0.2-0.4,0.4-0.8,0.7-1s0.6-0.3,1-0.3c0.1,0,0.2,0,0.4,0s0.2,0.1,0.3,0.1l-0.1,0.9
			c0,0.1-0.1,0.2-0.2,0.2c-0.1,0-0.2,0-0.2,0c-0.1,0-0.2,0-0.4,0c-0.4,0-0.7,0.1-0.9,0.3s-0.4,0.5-0.5,1v3.8h-1.2v-6.1h0.7
			c0.1,0,0.2,0,0.2,0.1c0.1,0,0.1,0.1,0.1,0.2L47,15.1z"/>
		<path class="st4" d="M52.9,13.7c0.4,0,0.8,0.1,1.2,0.2c0.4,0.1,0.7,0.4,0.9,0.6c0.2,0.3,0.4,0.6,0.6,1c0.1,0.4,0.2,0.8,0.2,1.3
			c0,0.5-0.1,0.9-0.2,1.3c-0.1,0.4-0.3,0.7-0.6,1c-0.2,0.3-0.6,0.5-0.9,0.6S53.3,20,52.9,20c-0.4,0-0.9-0.1-1.2-0.2
			s-0.7-0.4-0.9-0.6c-0.2-0.3-0.4-0.6-0.6-1s-0.2-0.8-0.2-1.3c0-0.5,0.1-0.9,0.2-1.3s0.3-0.7,0.6-1c0.2-0.3,0.6-0.5,0.9-0.6
			S52.4,13.7,52.9,13.7z M52.9,19.1c0.6,0,1-0.2,1.3-0.6c0.3-0.4,0.4-1,0.4-1.7c0-0.7-0.1-1.3-0.4-1.7c-0.3-0.4-0.7-0.6-1.3-0.6
			c-0.6,0-1,0.2-1.3,0.6c-0.3,0.4-0.4,1-0.4,1.7c0,0.7,0.1,1.3,0.4,1.7C51.8,18.9,52.3,19.1,52.9,19.1z"/>
		<path class="st4" d="M58.6,12c0,0.2-0.1,0.4-0.2,0.5c-0.2,0.1-0.3,0.2-0.6,0.2c-0.2,0-0.4-0.1-0.6-0.2c-0.2-0.1-0.2-0.3-0.2-0.5
			s0.1-0.4,0.2-0.5c0.2-0.1,0.3-0.2,0.6-0.2c0.2,0,0.4,0.1,0.6,0.2C58.5,11.6,58.6,11.8,58.6,12z M58.3,13.8v6.1h-1.2v-6.1H58.3z"/>
		<path class="st4" d="M65.2,11.2l0,8.8h-0.7c-0.2,0-0.3-0.1-0.3-0.2L64.1,19c-0.2,0.3-0.6,0.6-0.9,0.8S62.5,20,62,20
			c-0.7,0-1.2-0.3-1.7-0.8s-0.6-1.3-0.6-2.3c0-0.5,0.1-0.9,0.2-1.2c0.1-0.4,0.3-0.7,0.5-1c0.2-0.3,0.5-0.5,0.8-0.7s0.7-0.2,1.1-0.2
			c0.4,0,0.7,0.1,0.9,0.2s0.5,0.3,0.7,0.5l0-3.3L65.2,11.2L65.2,11.2z M64,15.3c-0.2-0.3-0.4-0.5-0.6-0.5c-0.2-0.1-0.5-0.1-0.7-0.1
			c-0.6,0-1,0.2-1.3,0.6c-0.3,0.4-0.4,1-0.4,1.7c0,0.8,0.1,1.4,0.4,1.7c0.3,0.3,0.6,0.5,1.1,0.5c0.3,0,0.6-0.1,0.9-0.2
			c0.3-0.1,0.5-0.4,0.7-0.7C64,18.2,64,15.3,64,15.3z"/>
		<path class="st4" d="M75.1,18.8c0.7,0,1-0.3,1-1v-1.7h1.1v1.7c0,0.2,0,0.3,0.1,0.4s0.1,0.2,0.2,0.3s0.2,0.1,0.3,0.2
			c0.1,0,0.2,0,0.4,0h0.2c0.1,0,0.2,0,0.2,0.1c0,0.1,0.1,0.2,0.1,0.4c0,0.2,0,0.4-0.1,0.4s-0.1,0.1-0.2,0.1h-0.3
			c-0.3,0-0.6-0.1-0.9-0.2s-0.5-0.3-0.7-0.7c-0.2,0.3-0.4,0.5-0.7,0.7c-0.3,0.1-0.5,0.2-0.8,0.2h-4.5c-0.4,0-0.7,0-0.9-0.2
			c-0.3-0.1-0.5-0.2-0.6-0.4c-0.2-0.2-0.3-0.4-0.3-0.6c-0.1-0.2-0.1-0.5-0.1-0.8v-1.8h1.1v1.5c0,0.3,0.1,0.6,0.2,0.8
			s0.5,0.3,0.9,0.3L75.1,18.8L75.1,18.8z M72.6,15h-1.2v-1.1h1.2V15z M74.4,15h-1.2v-1.1h1.2V15z"/>
		<path class="st4" d="M80.2,18.8c0.2,0,0.5,0,0.6,0c0.2,0,0.3,0,0.5,0c-0.4-0.1-0.7-0.3-1-0.5c-0.2-0.1-0.4-0.3-0.5-0.5
			s-0.2-0.4-0.2-0.5c0-0.2-0.1-0.4-0.1-0.7c0-0.2,0.1-0.5,0.1-0.7s0.2-0.5,0.4-0.7c0.2-0.2,0.4-0.4,0.7-0.5c0.3-0.1,0.6-0.2,0.9-0.2
			c0.3,0,0.6,0,0.9,0.1s0.5,0.2,0.7,0.4c0.2,0.2,0.4,0.5,0.5,0.8s0.2,0.7,0.2,1.2v0.6c0,0.7-0.2,1.2-0.6,1.6c-0.4,0.4-1,0.6-1.9,0.6
			h-3c-0.1,0-0.2,0-0.2-0.1s-0.1-0.2-0.1-0.4c0-0.2,0-0.4,0.1-0.5s0.1-0.1,0.2-0.1L80.2,18.8L80.2,18.8z M81.7,15.7
			c-0.2,0-0.3,0-0.5,0.1S81,16,80.9,16.1s-0.2,0.2-0.2,0.4c-0.1,0.1-0.1,0.3-0.1,0.4c0,0.1,0,0.3,0.1,0.4s0.1,0.2,0.2,0.4
			s0.3,0.3,0.6,0.4s0.7,0.3,1.1,0.5c0.1-0.1,0.2-0.2,0.2-0.4C83,18,83,17.8,83,17.6v-0.4c0-0.5-0.1-0.8-0.3-1.1S82.2,15.7,81.7,15.7
			z M82.4,13.4h-1.3v-1.1h1.3V13.4z"/>
		<path class="st4" d="M87.4,19.9c-0.2,0-0.5,0-0.7-0.1c-0.2-0.1-0.4-0.2-0.6-0.3c-0.2-0.2-0.3-0.4-0.4-0.6c-0.1-0.2-0.1-0.6-0.1-1
			v-6.1h1.1v5.8c0,0.3,0.1,0.6,0.2,0.8c0.1,0.2,0.4,0.3,0.7,0.3h0.3c0.2,0,0.3,0.2,0.3,0.6c0,0.4-0.1,0.6-0.3,0.6L87.4,19.9
			L87.4,19.9z"/>
		<path class="st4" d="M87.8,19.9c-0.1,0-0.2,0-0.2-0.1s-0.1-0.2-0.1-0.4c0-0.2,0-0.4,0.1-0.5s0.1-0.1,0.2-0.1h3
			c0.3,0,0.6-0.1,0.7-0.2c0.2-0.2,0.3-0.4,0.3-0.7v-1.7h1.1v1.7c0,0.7-0.2,1.2-0.5,1.5s-0.8,0.5-1.5,0.5L87.8,19.9L87.8,19.9z
			 M89.5,22.5h-1.2v-1.1h1.2V22.5z M91.2,22.5h-1.1v-1.1h1.1V22.5z"/>
		<path class="st4" d="M92.3,21.9h0.2c0.4,0,0.7-0.1,1-0.2c0.3-0.1,0.5-0.3,0.7-0.5s0.3-0.4,0.4-0.7c0.1-0.3,0.1-0.5,0.1-0.8v-3.5
			h1.1v3.5c0,0.5-0.1,0.9-0.2,1.4c-0.2,0.4-0.4,0.8-0.7,1.1c-0.3,0.3-0.6,0.5-1,0.7c-0.4,0.2-0.8,0.2-1.2,0.2h-0.4L92.3,21.9z"/>
		<path class="st4" d="M102,16.7c0.2,0.3,0.4,0.5,0.5,0.8c0.1,0.3,0.2,0.5,0.2,0.8c0,0.2,0,0.5-0.1,0.6s-0.2,0.4-0.4,0.5
			c-0.2,0.1-0.4,0.3-0.6,0.4c-0.2,0.1-0.5,0.1-0.8,0.1h-3.6l-0.1-1.1h3.5c0.3,0,0.5-0.1,0.6-0.2s0.2-0.3,0.2-0.5
			c0-0.2-0.1-0.5-0.3-0.7l-2.3-2.6l0.8-0.8L102,16.7z"/>
	</g>
	<path class="st4" d="M131.7,23c-3.9,0-7.8,0-11.6,0c-0.1,0-0.1,0-0.1-0.1c0.1-0.8,0.2-1.6,0.5-2.4c0.5-1.6,1.3-3.1,2.5-4.4
		c0.9-0.9,1.8-1.7,3-2.3c0.1,0,0.1,0,0-0.1c-0.6-1.1-1.3-2.2-1.9-3.3c-0.1-0.1-0.1-0.2-0.1-0.4c0-0.2,0.2-0.3,0.3-0.3s0.3,0,0.4,0.2
		c0.1,0.2,0.3,0.5,0.4,0.8c0.5,0.9,1,1.7,1.5,2.6c0,0,0.1,0.1,0.1,0c0.9-0.4,1.8-0.7,2.7-0.8c0.5-0.1,0.9-0.1,1.4-0.2
		c0.4,0,0.7,0,1.1,0c1.1,0,2.3,0.2,3.4,0.5c0.4,0.1,0.9,0.3,1.3,0.5c0.1,0,0.1,0,0.1,0c0.6-1.1,1.3-2.2,1.9-3.3
		c0.1-0.2,0.3-0.2,0.4-0.2c0.2,0,0.3,0.2,0.3,0.4c0,0.1,0,0.2-0.1,0.3c-0.3,0.5-0.5,0.9-0.8,1.4c-0.4,0.6-0.7,1.3-1.1,1.9
		c0,0,0,0.1,0,0.1c1,0.5,1.8,1.2,2.6,2c1.5,1.5,2.5,3.4,3,5.5c0.1,0.6,0.2,1.1,0.3,1.7c0,0,0,0.1-0.1,0c0,0,0,0-0.1,0
		C139.4,23,135.6,23,131.7,23z M126.3,19.6c0.5,0,1-0.4,1-1c0-0.5-0.4-1-1-1c-0.5,0-1,0.4-1,1C125.3,19.2,125.7,19.6,126.3,19.6z
		 M138.1,18.6c0-0.5-0.4-1-1-1c-0.5,0-1,0.4-1,1s0.4,1,1,1C137.6,19.6,138.1,19.2,138.1,18.6z"/>
</g>
</svg>
