<?xml version="1.0" encoding="utf-8"?>
<!-- Generator: Adobe Illustrator 25.0.1, SVG Export Plug-In . SVG Version: 6.00 Build 0)  -->
<svg version="1.1" id="Layer_1" xmlns="http://www.w3.org/2000/svg" xmlns:xlink="http://www.w3.org/1999/xlink" x="0px" y="0px"
	 viewBox="0 0 153.5 32.6" style="enable-background:new 0 0 153.5 32.6;" xml:space="preserve">
<style type="text/css">
	.st0{fill:#050505;}
	.st1{fill:#020202;}
	.st2{fill:#FDFCFC;}
	.st3{opacity:0.3;enable-background:new    ;}
	.st4{fill:#FFFFFF;}
	.st5{fill:#FBFDFE;}
	.st6{fill:#F8FBFD;}
	.st7{opacity:0.4;}
</style>
<g>
	<path d="M16.3,32.6h120.8c9,0,16.3-7.3,16.3-16.3l0,0c0-9-7.3-16.3-16.3-16.3H16.3C7.3,0,0,7.3,0,16.3l0,0
		C0,25.3,7.3,32.6,16.3,32.6z"/>
	<g>
		<path class="st4" d="M26.7,16.5c0,0.4,0.1,0.6,0.2,0.9s0.4,0.3,0.8,0.3H28c0.1,0,0.2,0,0.2,0.1s0.1,0.2,0.1,0.5
			c0,0.2,0,0.4-0.1,0.5s-0.1,0.2-0.2,0.2h-0.3c-0.4,0-0.8-0.1-1.1-0.3s-0.5-0.5-0.7-0.9c-0.1,0.1-0.2,0.2-0.4,0.3
			c-0.2,0.1-0.3,0.1-0.5,0.2c-0.2,0-0.3,0.1-0.5,0.1c-0.2,0-0.3,0-0.5,0c-0.7,0-1.2-0.2-1.6-0.6s-0.5-1-0.5-1.7c0-0.4,0.1-0.7,0.2-1
			s0.2-0.6,0.4-0.9c0.2-0.3,0.4-0.5,0.8-0.6s0.7-0.2,1-0.2h1.3v-1h1.1L26.7,16.5L26.7,16.5z M24.2,17.2c0.4,0,0.8-0.1,1-0.3
			c0.2-0.2,0.4-0.4,0.4-0.7v-1.8h-1.3c-0.4,0-0.8,0.1-1,0.4S23,15.5,23,16c0,0.4,0.1,0.7,0.3,0.9C23.5,17.1,23.8,17.2,24.2,17.2z"/>
		<path class="st4" d="M34.2,16.9c0.2,0.3,0.3,0.5,0.5,0.6c0.2,0.1,0.4,0.2,0.7,0.2h0.9c0.1,0,0.2,0,0.2,0.1s0.1,0.2,0.1,0.5
			c0,0.2,0,0.4-0.1,0.5s-0.1,0.2-0.2,0.2h-0.9c-0.3,0-0.6,0-0.8-0.1s-0.4-0.2-0.6-0.3c-0.2-0.1-0.3-0.3-0.4-0.5s-0.2-0.4-0.3-0.6
			l-1.3,0.7c-0.2,0.1-0.5,0.3-0.7,0.4c-0.2,0.1-0.5,0.2-0.8,0.2c-0.3,0.1-0.6,0.1-0.9,0.1s-0.7,0-1.1,0H28c-0.1,0-0.2,0-0.2-0.1
			s-0.1-0.2-0.1-0.5c0-0.2,0-0.4,0.1-0.5c0-0.1,0.1-0.2,0.2-0.2h0.7c0.4,0,0.7,0,1,0s0.5,0,0.8-0.1s0.5-0.1,0.7-0.2
			c0.2-0.1,0.4-0.2,0.6-0.3l2.1-1.2c-0.1-0.2-0.2-0.3-0.2-0.5s-0.2-0.2-0.3-0.3s-0.2-0.2-0.4-0.2c-0.2,0-0.4-0.1-0.6-0.1h-3.1
			l0.1-1.2h3.2c0.3,0,0.5,0,0.8,0.1c0.3,0.1,0.5,0.2,0.7,0.4c0.2,0.2,0.4,0.5,0.7,0.9c0.2,0.4,0.4,0.9,0.5,1.5L34.2,16.9z
			 M31.6,21.7h-1.3v-1.2h1.3V21.7z M32.6,23.5h-1.3v-1.2h1.3V23.5z M33.5,21.7h-1.3v-1.2h1.3V21.7z"/>
		<path class="st4" d="M37.4,17.7c0.7,0,1.1-0.3,1.1-1v-1.8h1.2v1.8c0,0.2,0,0.4,0.1,0.5s0.1,0.2,0.2,0.3c0.1,0.1,0.2,0.1,0.4,0.2
			c0.1,0,0.3,0.1,0.4,0.1h0.4c0.2,0,0.3,0.2,0.3,0.6c0,0.4-0.1,0.6-0.3,0.6h-0.4c-0.3,0-0.7-0.1-1-0.2c-0.3-0.1-0.6-0.4-0.8-0.7
			c-0.2,0.4-0.5,0.6-0.8,0.7s-0.6,0.2-0.9,0.2h-1c-0.1,0-0.2,0-0.2-0.1S36,18.5,36,18.3c0-0.2,0-0.4,0.1-0.5c0-0.1,0.1-0.2,0.2-0.2
			H37.4z M39.4,21.7H38v-1.2h1.4V21.7z"/>
		<path class="st4" d="M42.2,17.7c0.7,0,1.1-0.3,1.1-1v-1.8h1.2v1.8c0,0.2,0,0.4,0.1,0.5s0.1,0.2,0.2,0.3c0.1,0.1,0.2,0.1,0.4,0.2
			c0.1,0,0.3,0.1,0.4,0.1H46c0.2,0,0.3,0.2,0.3,0.6c0,0.4-0.1,0.6-0.3,0.6h-0.4c-0.3,0-0.7-0.1-1-0.2c-0.3-0.1-0.6-0.4-0.8-0.7
			c-0.2,0.4-0.5,0.6-0.8,0.7s-0.6,0.2-0.9,0.2h-1c-0.1,0-0.2,0-0.2-0.1s-0.1-0.2-0.1-0.5c0-0.2,0-0.4,0.1-0.5c0-0.1,0.1-0.2,0.2-0.2
			H42.2z M43.2,21.7h-1.3v-1.2h1.3V21.7z M45.1,21.7h-1.2v-1.2h1.2V21.7z"/>
		<path class="st4" d="M46.5,17.7c0.8,0,1.1-0.3,1.1-1v-1.8h1.2v1.8c0,0.2,0,0.4,0.1,0.5s0.2,0.2,0.3,0.3c0.1,0.1,0.2,0.1,0.4,0.2
			c0.1,0,0.3,0.1,0.4,0.1c0.8,0,1.2-0.3,1.2-1v-1.8h1.2v1.8c0,0.4,0.1,0.7,0.3,0.8c0.2,0.1,0.4,0.2,0.7,0.2c0.3,0,0.6-0.1,0.8-0.3
			c0.2-0.2,0.3-0.4,0.3-0.8v-1.8h1.2v1.9c0,0.7-0.2,1.3-0.6,1.6s-0.9,0.6-1.6,0.6c-0.3,0-0.7-0.1-0.9-0.2c-0.3-0.1-0.6-0.4-0.8-0.7
			c-0.2,0.4-0.5,0.6-0.8,0.7c-0.3,0.1-0.6,0.2-1,0.2c-0.4,0-0.7-0.1-1-0.2s-0.6-0.4-0.8-0.7c-0.2,0.4-0.5,0.6-0.8,0.7
			c-0.3,0.1-0.6,0.2-0.9,0.2H46c-0.1,0-0.2,0-0.2-0.1s-0.1-0.2-0.1-0.5c0-0.2,0-0.4,0.1-0.5c0-0.1,0.1-0.2,0.2-0.2L46.5,17.7
			L46.5,17.7z"/>
		<path class="st4" d="M60.7,20.1c-0.2,0.5-0.4,0.8-0.7,1.2s-0.7,0.6-1.1,0.8c-0.4,0.2-0.9,0.3-1.3,0.3h-0.9l-0.1-1.2h0.7
			c0.4,0,0.8-0.1,1.2-0.2c0.3-0.1,0.6-0.3,0.8-0.5c0.2-0.2,0.3-0.5,0.4-0.8c0.1-0.3,0.1-0.6,0.1-0.9v-3.9H61v3.9
			C61,19.2,60.9,19.7,60.7,20.1z M61,13.1h-1.4v-1.2H61V13.1z"/>
		<path class="st4" d="M62.7,10.1h1.2v8.8h-1.2V10.1z"/>
		<path class="st4" d="M74.8,17.7c0.7,0,1.1-0.3,1.1-1v-1.8h1.2v1.8c0,0.2,0,0.4,0.1,0.5s0.1,0.2,0.3,0.3c0.1,0.1,0.2,0.1,0.4,0.2
			c0.1,0,0.3,0.1,0.4,0.1h0.3c0.1,0,0.2,0,0.2,0.1s0.1,0.2,0.1,0.5c0,0.2,0,0.4-0.1,0.5s-0.1,0.2-0.2,0.2h-0.3c-0.4,0-0.7-0.1-1-0.2
			s-0.6-0.4-0.8-0.7c-0.2,0.4-0.5,0.6-0.8,0.7s-0.6,0.2-0.9,0.2h-4.9c-0.4,0-0.7-0.1-1-0.2s-0.5-0.3-0.7-0.5
			c-0.2-0.2-0.3-0.4-0.4-0.7c-0.1-0.3-0.1-0.5-0.1-0.8v-2h1.2v1.6c0,0.4,0.1,0.7,0.3,0.9s0.5,0.3,1,0.3L74.8,17.7L74.8,17.7z
			 M72.1,13.6h-1.3v-1.2h1.3V13.6z M74,13.6h-1.3v-1.2H74V13.6z"/>
		<path class="st4" d="M80.3,17.7c0.3,0,0.5,0,0.7,0s0.4,0,0.6,0c-0.4-0.2-0.8-0.3-1.1-0.5c-0.3-0.2-0.4-0.3-0.6-0.5
			s-0.2-0.4-0.2-0.6s-0.1-0.5-0.1-0.7c0-0.2,0.1-0.5,0.1-0.8c0.1-0.3,0.2-0.5,0.4-0.7s0.4-0.4,0.8-0.5c0.3-0.1,0.6-0.2,1-0.2
			c0.4,0,0.7,0,1,0.1s0.6,0.2,0.8,0.5c0.2,0.2,0.4,0.5,0.5,0.9c0.1,0.4,0.2,0.8,0.2,1.3v0.7c0,0.7-0.2,1.3-0.7,1.7
			c-0.4,0.4-1.1,0.6-2.1,0.6h-3.3c-0.1,0-0.2,0-0.2-0.1s-0.1-0.2-0.1-0.5c0-0.2,0-0.4,0.1-0.5c0-0.1,0.1-0.2,0.2-0.2L80.3,17.7
			L80.3,17.7z M82,14.3c-0.2,0-0.4,0-0.5,0.1c-0.1,0.1-0.3,0.2-0.4,0.3s-0.2,0.2-0.2,0.4s-0.1,0.3-0.1,0.5s0,0.3,0.1,0.5
			s0.1,0.3,0.3,0.4s0.4,0.3,0.7,0.5s0.7,0.3,1.2,0.5c0.1-0.1,0.2-0.2,0.3-0.4c0.1-0.2,0.1-0.4,0.1-0.6V16c0-0.5-0.1-0.9-0.3-1.2
			C82.8,14.5,82.5,14.3,82,14.3z M82.7,11.8h-1.4v-1.2h1.4V11.8z"/>
		<path class="st4" d="M88.1,18.9c-0.3,0-0.5,0-0.7-0.1c-0.2-0.1-0.4-0.2-0.6-0.4s-0.3-0.4-0.4-0.7c-0.1-0.3-0.2-0.6-0.2-1v-6.6h1.2
			v6.3c0,0.4,0.1,0.6,0.2,0.9s0.4,0.3,0.8,0.3h0.3c0.2,0,0.3,0.2,0.3,0.6c0,0.4-0.1,0.6-0.3,0.6L88.1,18.9L88.1,18.9z"/>
		<path class="st4" d="M88.6,18.9c-0.1,0-0.2,0-0.2-0.1s-0.1-0.2-0.1-0.5c0-0.2,0-0.4,0.1-0.5c0-0.1,0.1-0.2,0.2-0.2h3.2
			c0.3,0,0.6-0.1,0.8-0.3s0.3-0.4,0.3-0.8v-1.8h1.2v1.9c0,0.7-0.2,1.3-0.6,1.6s-0.9,0.6-1.6,0.6L88.6,18.9L88.6,18.9z M90.4,21.7
			h-1.3v-1.2h1.3V21.7z M92.3,21.7h-1.2v-1.2h1.2V21.7z"/>
		<path class="st4" d="M93.5,21.1h0.2c0.4,0,0.8-0.1,1.1-0.2c0.3-0.1,0.6-0.3,0.8-0.5c0.2-0.2,0.4-0.5,0.4-0.8
			c0.1-0.3,0.1-0.6,0.1-0.9v-3.9h1.2v3.9c0,0.5-0.1,1-0.3,1.5c-0.2,0.5-0.4,0.8-0.7,1.2c-0.3,0.3-0.7,0.6-1.1,0.8
			c-0.4,0.2-0.9,0.3-1.3,0.3h-0.4L93.5,21.1z"/>
		<path class="st4" d="M104.1,15.4c0.2,0.3,0.4,0.6,0.5,0.8s0.2,0.5,0.2,0.8c0,0.2-0.1,0.5-0.1,0.7s-0.2,0.4-0.4,0.6
			c-0.2,0.2-0.4,0.3-0.7,0.4c-0.3,0.1-0.6,0.1-0.9,0.1h-3.9l-0.1-1.2h3.8c0.3,0,0.5-0.1,0.7-0.2c0.2-0.1,0.2-0.3,0.2-0.5
			c0-0.2-0.1-0.5-0.3-0.7l-2.5-2.9l0.9-0.9L104.1,15.4z"/>
	</g>
	<g>
		<path class="st5" d="M122.1,19.4c0-4.4,2.7-8.1,6.8-9.3c5.8-1.7,10.9,1.9,12.1,6.8c0.8,3.1,0.2,6-1.9,8.6c-0.3,0.4-0.3,0.4-0.7,0
			c-0.9-1.1-1.6-2.3-2-3.6c-0.2-0.9-0.3-1.8-0.3-2.7c0-2-1.8-3.8-3.7-4.1c-2-0.3-4,0.8-4.7,2.7c-0.6,1.6-0.4,3.1,0.8,4.4
			c1.1,1.3,2.6,1.7,4.3,1.4c0.4-0.1,0.8-0.2,1.1-0.4c0.2-0.2,0.4-0.1,0.5,0.1c0.8,1.3,1.5,2.6,2.3,3.9c0.1,0.2,0.1,0.4-0.1,0.5
			c-1.1,0.6-2.2,1-3.5,1.1c-4.2,0.5-7.9-1.5-9.9-5.3C122.3,22.2,122.1,20.7,122.1,19.4z"/>
		<path class="st6" d="M137.5,3.8c0.4,0,0.8,0,1.2,0.1c0.3,0,0.4,0.1,0.3,0.4c-1,2.6-2.8,4.4-5.9,4.5c-0.6,0-1.2,0-1.7,0
			c-0.4,0-0.4-0.2-0.3-0.5c1-2.8,3.2-4.4,6.2-4.4C137.3,3.8,137.4,3.8,137.5,3.8C137.5,3.8,137.5,3.8,137.5,3.8z"/>
	</g>
</g>
</svg>
