<?xml version="1.0" encoding="UTF-8" standalone="no"?>
<svg
   xmlns:dc="http://purl.org/dc/elements/1.1/"
   xmlns:cc="http://creativecommons.org/ns#"
   xmlns:rdf="http://www.w3.org/1999/02/22-rdf-syntax-ns#"
   xmlns:svg="http://www.w3.org/2000/svg"
   xmlns="http://www.w3.org/2000/svg"
   viewBox="0 0 218.44533 53.653599"
   height="53.653599"
   width="218.44533"
   xml:space="preserve"
   id="svg2"
   version="1.1"><metadata
     id="metadata8"><rdf:RDF><cc:Work
         rdf:about=""><dc:format>image/svg+xml</dc:format><dc:type
           rdf:resource="http://purl.org/dc/dcmitype/StillImage" /></cc:Work></rdf:RDF></metadata><defs
     id="defs6"><clipPath
       id="clipPath18"
       clipPathUnits="userSpaceOnUse"><path
         id="path16"
         d="M 0,40.24 H 163.834 V 0 H 0 Z" /></clipPath></defs><g
     transform="matrix(1.3333333,0,0,-1.3333333,0,53.6536)"
     id="g10"><g
       id="g12"><g
         clip-path="url(#clipPath18)"
         id="g14"><g
           transform="translate(21.5023,3.7999)"
           id="g20"><path
             id="path22"
             style="fill:#000000;fill-opacity:1;fill-rule:nonzero;stroke:none"
             d="m 0,0 h 120.83 c 9.01,0 16.319,7.31 16.319,16.32 0,9.01 -7.309,16.32 -16.319,16.32 H 0 c -9.011,0 -16.32,-7.31 -16.32,-16.32 C -16.32,7.31 -9.011,0 0,0" /></g><g
           transform="translate(145.1859,20.8609)"
           id="g24"><path
             id="path26"
             style="fill:#ffffff;fill-opacity:1;fill-rule:nonzero;stroke:none"
             d="M 0,0 C -0.042,1.091 -0.175,2.141 -0.385,3.13 H 2.366 C 2.773,2.155 3.033,1.102 3.116,0 Z m 2.366,-4.695 h -2.751 c 0.21,0.989 0.343,2.039 0.385,3.13 H 3.114 C 3.033,-2.667 2.773,-3.72 2.366,-4.695 m -5.003,-5.266 c 0.756,1.006 1.385,2.265 1.844,3.701 H 1.548 C 0.527,-7.853 -0.923,-9.139 -2.637,-9.961 m -3.607,-0.893 v 4.594 h 3.834 c -0.84,-2.436 -2.227,-4.164 -3.834,-4.594 m 0,9.289 h 4.68 C -1.61,-2.667 -1.75,-3.72 -1.972,-4.695 h -4.272 z m 0,4.695 h 4.272 C -1.75,2.155 -1.613,1.102 -1.564,0 h -4.68 z m 0,6.159 C -4.637,8.859 -3.25,7.132 -2.41,4.695 H -6.244 Z M 1.548,4.695 H -0.793 C -1.252,6.132 -1.878,7.392 -2.637,8.396 -0.923,7.575 0.527,6.287 1.548,4.695 m -9.358,0 h -3.834 c 0.841,2.437 2.226,4.164 3.834,4.594 z M -7.81,0 h -4.678 c 0.045,1.102 0.184,2.155 0.405,3.13 h 4.273 z m 0,-4.695 h -4.273 c -0.221,0.975 -0.36,2.028 -0.405,3.13 h 4.678 z m 0,-6.159 c -1.608,0.43 -2.993,2.158 -3.834,4.594 h 3.834 z m -7.792,4.594 h 2.343 c 0.457,-1.436 1.085,-2.696 1.843,-3.701 -1.716,0.822 -3.165,2.108 -4.186,3.701 m -1.567,4.695 h 3.115 c 0.042,-1.091 0.176,-2.141 0.385,-3.13 h -2.751 c -0.406,0.975 -0.667,2.028 -0.749,3.13 m 0.749,4.695 h 2.751 C -13.878,2.141 -14.012,1.091 -14.054,0 h -3.115 c 0.082,1.102 0.343,2.155 0.749,3.13 m 5.004,5.266 C -12.173,7.392 -12.8,6.132 -13.257,4.695 h -2.345 c 1.021,1.592 2.47,2.88 4.186,3.701 M 4.683,0 C 4.298,5.859 -0.385,10.543 -6.244,10.929 v 0.026 H -7.026 -7.81 V 10.929 C -13.669,10.543 -18.353,5.859 -18.737,0 h -0.027 v -0.782 -0.783 h 0.027 c 0.384,-5.859 5.068,-10.541 10.927,-10.927 v -0.028 h 0.784 0.782 v 0.028 c 5.859,0.386 10.542,5.068 10.927,10.927 H 4.711 V -0.782 0 Z" /></g><path
           id="path28"
           style="fill:#ffffff;fill-opacity:1;fill-rule:nonzero;stroke:none"
           d="m 29.601,15.387 h -1.348 v 1.183 h 1.348 z m -3.08,2.75 c -0.376,0 -0.698,0.057 -0.969,0.172 -0.27,0.114 -0.49,0.268 -0.66,0.46 -0.17,0.193 -0.293,0.417 -0.371,0.674 -0.078,0.256 -0.117,0.527 -0.117,0.811 v 1.897 h 1.128 v -1.622 c 0,-0.358 0.086,-0.644 0.26,-0.859 0.174,-0.216 0.504,-0.323 0.991,-0.323 h 4.509 c 0.705,0 1.059,0.334 1.059,1.003 v 1.76 h 1.127 v -1.98 c 0,-0.33 -0.055,-0.618 -0.165,-0.866 -0.11,-0.247 -0.259,-0.453 -0.446,-0.618 -0.189,-0.165 -0.404,-0.291 -0.647,-0.379 -0.243,-0.087 -0.497,-0.13 -0.763,-0.13 z" /><g
           transform="translate(36.1048,20.4464)"
           id="g30"><path
             id="path32"
             style="fill:#ffffff;fill-opacity:1;fill-rule:nonzero;stroke:none"
             d="M 0,0 C 0,-0.394 0.094,-0.676 0.281,-0.845 0.47,-1.015 0.834,-1.1 1.375,-1.1 h 1.086 v 0.853 C 2.461,0.33 2.349,0.745 2.124,0.997 1.899,1.249 1.585,1.375 1.182,1.375 0.807,1.375 0.516,1.253 0.309,1.011 0.103,0.768 0,0.431 0,0 m 0.123,-4.44 c 0.376,0 0.706,0.057 0.99,0.171 0.284,0.115 0.521,0.269 0.708,0.461 0.188,0.192 0.332,0.417 0.434,0.674 0.1,0.256 0.16,0.531 0.179,0.824 H 1.265 c -0.468,0 -0.853,0.051 -1.156,0.152 -0.301,0.1 -0.541,0.247 -0.714,0.44 -0.174,0.192 -0.295,0.428 -0.365,0.708 -0.068,0.279 -0.102,0.593 -0.102,0.942 0,0.348 0.05,0.68 0.15,0.996 0.102,0.317 0.248,0.593 0.441,0.832 0.192,0.239 0.432,0.428 0.721,0.571 0.289,0.142 0.626,0.213 1.011,0.213 0.303,0 0.593,-0.051 0.873,-0.151 C 2.403,2.292 2.648,2.133 2.859,1.918 3.07,1.703 3.237,1.421 3.361,1.073 3.485,0.724 3.547,0.303 3.547,-0.192 V -2.089 C 3.547,-2.557 3.472,-3.006 3.32,-3.437 3.169,-3.868 2.949,-4.246 2.66,-4.571 2.371,-4.896 2.021,-5.156 1.608,-5.348 1.196,-5.541 0.729,-5.637 0.206,-5.637 h -1.43 l -0.083,1.197 z" /></g><g
           transform="translate(45.3988,19.8277)"
           id="g34"><path
             id="path36"
             style="fill:#ffffff;fill-opacity:1;fill-rule:nonzero;stroke:none"
             d="m 0,0 c 0.422,0 0.752,0.087 0.99,0.261 0.239,0.175 0.358,0.394 0.358,0.66 V 2.64 H 0.11 C -0.33,2.64 -0.655,2.502 -0.866,2.228 -1.077,1.953 -1.183,1.59 -1.183,1.141 -1.183,0.72 -1.086,0.424 -0.894,0.254 -0.701,0.085 -0.403,0 0,0 m 2.434,0.674 c 0,-0.349 0.071,-0.628 0.212,-0.839 0.143,-0.211 0.388,-0.316 0.736,-0.316 h 0.275 c 0.111,0 0.186,-0.048 0.227,-0.144 0.042,-0.097 0.062,-0.246 0.062,-0.447 0,-0.211 -0.02,-0.367 -0.062,-0.468 C 3.843,-1.641 3.768,-1.691 3.657,-1.691 H 3.382 c -0.44,0 -0.809,0.085 -1.107,0.254 C 1.978,-1.267 1.76,-0.962 1.622,-0.522 1.513,-0.66 1.382,-0.77 1.23,-0.852 1.079,-0.935 0.921,-0.999 0.756,-1.045 0.591,-1.091 0.422,-1.123 0.248,-1.141 0.073,-1.16 -0.087,-1.168 -0.233,-1.168 c -0.661,0 -1.164,0.183 -1.513,0.549 -0.349,0.367 -0.523,0.922 -0.523,1.664 0,0.339 0.048,0.671 0.145,0.997 0.096,0.325 0.24,0.616 0.433,0.873 0.193,0.256 0.433,0.462 0.722,0.619 0.288,0.155 0.625,0.234 1.01,0.234 h 1.307 v 0.934 h 1.086 z" /></g><path
           id="path38"
           style="fill:#ffffff;fill-opacity:1;fill-rule:nonzero;stroke:none"
           d="m 53.167,24.874 h -1.348 v 1.183 h 1.348 z m 1.883,-4.757 c 0.147,-0.294 0.31,-0.495 0.488,-0.605 0.179,-0.11 0.415,-0.165 0.708,-0.165 h 0.853 c 0.119,0 0.199,-0.049 0.24,-0.145 0.042,-0.096 0.063,-0.245 0.063,-0.447 0,-0.21 -0.021,-0.366 -0.063,-0.467 -0.041,-0.101 -0.121,-0.151 -0.24,-0.151 h -0.921 c -0.303,0 -0.56,0.039 -0.77,0.116 -0.211,0.079 -0.39,0.184 -0.537,0.317 -0.146,0.133 -0.267,0.291 -0.364,0.474 -0.096,0.184 -0.18,0.385 -0.254,0.605 l -1.237,-0.715 c -0.238,-0.146 -0.473,-0.27 -0.701,-0.371 -0.23,-0.101 -0.475,-0.184 -0.737,-0.247 -0.26,-0.064 -0.546,-0.11 -0.858,-0.138 -0.312,-0.028 -0.67,-0.041 -1.073,-0.041 h -0.591 c -0.119,0 -0.199,0.048 -0.24,0.144 -0.042,0.097 -0.063,0.241 -0.063,0.433 0,0.22 0.021,0.38 0.063,0.481 0.041,0.101 0.121,0.152 0.24,0.152 h 0.633 c 0.347,0 0.657,0.009 0.928,0.027 0.27,0.019 0.52,0.05 0.749,0.096 0.229,0.046 0.444,0.108 0.646,0.186 0.201,0.078 0.407,0.177 0.618,0.296 l 2.049,1.182 c -0.073,0.165 -0.144,0.309 -0.213,0.433 -0.068,0.124 -0.158,0.231 -0.268,0.323 -0.11,0.092 -0.243,0.16 -0.399,0.206 -0.156,0.046 -0.352,0.069 -0.591,0.069 h -2.997 l 0.082,1.21 h 3.08 c 0.247,0 0.497,-0.032 0.749,-0.096 0.252,-0.065 0.491,-0.192 0.715,-0.385 0.225,-0.193 0.434,-0.468 0.626,-0.825 0.193,-0.357 0.353,-0.83 0.481,-1.416 z" /><g
           transform="translate(57.6488,19.3468)"
           id="g40"><path
             id="path42"
             style="fill:#ffffff;fill-opacity:1;fill-rule:nonzero;stroke:none"
             d="M 0,0 C 0.724,0 1.086,0.334 1.086,1.003 V 2.764 H 2.214 V 1.003 C 2.214,0.82 2.246,0.665 2.31,0.536 2.374,0.408 2.456,0.305 2.558,0.227 2.658,0.149 2.775,0.091 2.908,0.055 3.041,0.018 3.176,0 3.313,0 4.102,0 4.496,0.334 4.496,1.003 V 2.764 H 5.623 V 1.003 C 5.623,0.627 5.722,0.366 5.919,0.22 6.116,0.073 6.348,0 6.613,0 6.934,0 7.184,0.087 7.362,0.261 7.541,0.435 7.631,0.683 7.631,1.003 V 2.764 H 8.758 V 1.003 C 8.758,0.82 8.788,0.665 8.848,0.536 8.907,0.408 8.987,0.305 9.088,0.227 9.188,0.149 9.304,0.091 9.432,0.055 9.561,0.018 9.688,0 9.816,0 h 0.289 c 0.202,0 0.303,-0.197 0.303,-0.591 0,-0.413 -0.101,-0.619 -0.303,-0.619 H 9.816 c -0.338,0 -0.652,0.06 -0.941,0.179 C 8.586,-0.912 8.346,-0.679 8.153,-0.33 7.942,-0.679 7.697,-0.912 7.418,-1.031 7.138,-1.15 6.87,-1.21 6.613,-1.21 6.292,-1.21 5.995,-1.15 5.72,-1.031 5.444,-0.912 5.211,-0.679 5.019,-0.33 4.808,-0.679 4.551,-0.912 4.249,-1.031 3.946,-1.15 3.635,-1.21 3.313,-1.21 2.965,-1.21 2.642,-1.15 2.345,-1.031 2.046,-0.912 1.801,-0.679 1.608,-0.33 1.397,-0.679 1.15,-0.912 0.866,-1.031 0.582,-1.15 0.279,-1.21 -0.041,-1.21 H -0.55 c -0.119,0 -0.199,0.048 -0.24,0.145 -0.042,0.096 -0.063,0.24 -0.063,0.433 0,0.219 0.021,0.38 0.063,0.481 0.041,0.1 0.121,0.151 0.24,0.151 z" /></g><path
           id="path44"
           style="fill:#ffffff;fill-opacity:1;fill-rule:nonzero;stroke:none"
           d="m 70.806,23.801 h -1.347 v 1.183 h 1.347 z m -1.801,-4.454 c 0.33,0 0.589,0.087 0.778,0.261 0.187,0.174 0.281,0.421 0.281,0.742 v 1.76 h 1.128 v -1.815 c 0,-0.696 -0.186,-1.23 -0.557,-1.602 -0.372,-0.371 -0.888,-0.556 -1.547,-0.556 h -1.334 c -0.119,0 -0.199,0.048 -0.24,0.144 -0.042,0.097 -0.062,0.241 -0.062,0.433 0,0.22 0.02,0.38 0.062,0.481 0.041,0.101 0.121,0.152 0.24,0.152 z" /><path
           id="path46"
           style="fill:#ffffff;fill-opacity:1;fill-rule:nonzero;stroke:none"
           d="m 80.787,23.279 h -1.251 v 1.155 h 1.251 z m -1.841,0 h -1.252 v 1.155 h 1.252 z m 2.653,-3.932 c 0.705,0 1.059,0.334 1.059,1.003 v 1.76 h 1.127 v -1.76 c 0,-0.183 0.032,-0.339 0.096,-0.467 0.064,-0.129 0.147,-0.232 0.247,-0.31 0.101,-0.077 0.218,-0.135 0.351,-0.171 0.133,-0.037 0.268,-0.055 0.406,-0.055 h 0.247 c 0.119,0 0.199,-0.049 0.24,-0.145 0.042,-0.096 0.063,-0.245 0.063,-0.447 0,-0.21 -0.021,-0.366 -0.063,-0.467 -0.041,-0.101 -0.121,-0.151 -0.24,-0.151 h -0.275 c -0.339,0 -0.653,0.059 -0.942,0.179 -0.289,0.119 -0.529,0.352 -0.721,0.701 -0.211,-0.349 -0.454,-0.582 -0.729,-0.701 -0.275,-0.12 -0.564,-0.179 -0.866,-0.179 h -4.772 c -0.375,0 -0.698,0.057 -0.968,0.172 -0.271,0.114 -0.491,0.268 -0.66,0.46 -0.17,0.193 -0.293,0.417 -0.372,0.674 -0.078,0.256 -0.117,0.527 -0.117,0.811 v 1.897 h 1.128 v -1.622 c 0,-0.358 0.087,-0.644 0.261,-0.859 0.174,-0.216 0.504,-0.323 0.99,-0.323 z" /><path
           id="path48"
           style="fill:#ffffff;fill-opacity:1;fill-rule:nonzero;stroke:none"
           d="m 89.257,25.052 h -1.348 v 1.183 h 1.348 z m -0.729,-2.474 c -0.193,0 -0.362,-0.034 -0.508,-0.103 -0.148,-0.069 -0.274,-0.159 -0.379,-0.268 -0.106,-0.111 -0.183,-0.237 -0.233,-0.379 -0.051,-0.142 -0.076,-0.286 -0.076,-0.433 0,-0.156 0.016,-0.3 0.048,-0.433 0.032,-0.133 0.119,-0.268 0.261,-0.405 0.143,-0.138 0.36,-0.282 0.653,-0.433 0.293,-0.152 0.697,-0.324 1.21,-0.516 0.111,0.101 0.195,0.238 0.255,0.413 0.059,0.173 0.089,0.361 0.089,0.563 v 0.413 c 0,0.485 -0.099,0.87 -0.296,1.154 -0.197,0.285 -0.538,0.427 -1.024,0.427 m -1.581,-3.231 c 0.266,0 0.481,-0.003 0.646,-0.007 0.165,-0.005 0.353,-0.021 0.564,-0.048 -0.431,0.155 -0.77,0.314 -1.017,0.474 -0.248,0.16 -0.434,0.33 -0.558,0.509 -0.123,0.179 -0.204,0.373 -0.24,0.584 -0.037,0.211 -0.055,0.449 -0.055,0.715 0,0.247 0.048,0.504 0.144,0.77 0.097,0.265 0.241,0.506 0.434,0.722 0.192,0.215 0.432,0.392 0.721,0.529 0.289,0.137 0.621,0.206 0.997,0.206 0.358,0 0.681,-0.046 0.969,-0.137 0.289,-0.092 0.536,-0.245 0.743,-0.461 0.206,-0.215 0.366,-0.495 0.481,-0.839 0.115,-0.343 0.172,-0.762 0.172,-1.257 v -0.661 c 0,-0.714 -0.213,-1.278 -0.639,-1.691 -0.427,-0.412 -1.098,-0.618 -2.015,-0.618 h -3.162 c -0.119,0 -0.199,0.048 -0.24,0.144 -0.042,0.097 -0.063,0.241 -0.063,0.433 0,0.22 0.021,0.38 0.063,0.481 0.041,0.101 0.121,0.152 0.24,0.152 z" /><g
           transform="translate(94.4808,18.1368)"
           id="g50"><path
             id="path52"
             style="fill:#ffffff;fill-opacity:1;fill-rule:nonzero;stroke:none"
             d="m 0,0 c -0.247,0 -0.486,0.034 -0.715,0.103 -0.229,0.069 -0.429,0.186 -0.598,0.351 -0.169,0.165 -0.305,0.382 -0.406,0.653 -0.1,0.27 -0.151,0.607 -0.151,1.01 v 6.407 h 1.128 V 2.365 c 0,-0.349 0.075,-0.628 0.226,-0.839 C -0.364,1.315 -0.124,1.21 0.206,1.21 H 0.481 C 0.683,1.21 0.783,1.013 0.783,0.619 0.783,0.206 0.683,0 0.481,0 Z" /></g><path
           id="path54"
           style="fill:#ffffff;fill-opacity:1;fill-rule:nonzero;stroke:none"
           d="m 98.565,15.415 h -1.21 v 1.155 h 1.21 z m -1.87,0 h -1.224 v 1.155 h 1.224 z m -1.733,2.722 c -0.119,0 -0.199,0.048 -0.24,0.144 -0.042,0.097 -0.062,0.241 -0.062,0.433 0,0.22 0.02,0.38 0.062,0.481 0.041,0.101 0.121,0.152 0.24,0.152 h 3.149 c 0.33,0 0.589,0.087 0.777,0.261 0.188,0.174 0.281,0.421 0.281,0.742 v 1.76 h 1.128 v -1.815 c 0,-0.696 -0.188,-1.23 -0.564,-1.602 -0.376,-0.371 -0.889,-0.556 -1.539,-0.556 z" /><g
           transform="translate(99.7191,16.0059)"
           id="g56"><path
             id="path58"
             style="fill:#ffffff;fill-opacity:1;fill-rule:nonzero;stroke:none"
             d="m 0,0 h 0.233 c 0.422,0 0.782,0.066 1.079,0.199 0.298,0.133 0.543,0.309 0.736,0.53 0.192,0.219 0.335,0.469 0.427,0.749 0.09,0.279 0.137,0.57 0.137,0.873 V 6.104 H 3.739 V 2.351 C 3.739,1.837 3.654,1.363 3.485,0.928 3.315,0.493 3.081,0.117 2.784,-0.2 2.485,-0.516 2.138,-0.761 1.739,-0.935 1.34,-1.109 0.907,-1.196 0.439,-1.196 H 0.068 Z" /></g><g
           transform="translate(109.9212,21.4913)"
           id="g60"><path
             id="path62"
             style="fill:#ffffff;fill-opacity:1;fill-rule:nonzero;stroke:none"
             d="m 0,0 c 0.238,-0.275 0.412,-0.547 0.522,-0.818 0.11,-0.27 0.165,-0.534 0.165,-0.79 0,-0.248 -0.045,-0.477 -0.137,-0.688 -0.092,-0.211 -0.223,-0.394 -0.392,-0.55 -0.17,-0.156 -0.383,-0.279 -0.639,-0.371 -0.257,-0.092 -0.55,-0.137 -0.88,-0.137 h -3.768 l -0.068,1.209 h 3.671 c 0.293,0 0.517,0.067 0.673,0.2 0.156,0.133 0.234,0.304 0.234,0.515 0,0.239 -0.106,0.472 -0.317,0.701 l -2.447,2.792 0.88,0.825 z" /></g></g></g></g></svg>