<svg id="Layer_1" data-name="Layer 1" xmlns="http://www.w3.org/2000/svg" viewBox="0 0 153.47002 32.64"><defs><style>.cls-1{fill:#fff;}</style></defs><path d="M16.32,32.64H137.15a16.32423,16.32423,0,0,0,16.32-16.32h0A16.32421,16.32421,0,0,0,137.15,0H16.32A16.32421,16.32421,0,0,0,0,16.32H0A16.32421,16.32421,0,0,0,16.32,32.64Z"/><path class="cls-1" d="M37.08876,21.25985a3.549,3.549,0,0,1-.701,1.13938,3.10674,3.10674,0,0,1-1.05584.74322,3.29657,3.29657,0,0,1-1.31937.26353H33.1651l-.0689-1.20827h.639a2.8415,2.8415,0,0,0,1.13162-.20153,2.15959,2.15959,0,0,0,.7639-.53481,2.11366,2.11366,0,0,0,.43749-.757,2.82436,2.82436,0,0,0,.13865-.88187V16.0306h1.13938v3.7919A3.92631,3.92631,0,0,1,37.08876,21.25985Z"/><path class="cls-1" d="M39.04026,11.43347h1.13851v8.61122H39.04026Z"/><path class="cls-1" d="M43.32476,21.25985a3.54881,3.54881,0,0,1-.701,1.13938,3.10665,3.10665,0,0,1-1.05584.74322,3.29653,3.29653,0,0,1-1.31937.26353H39.4011l-.06889-1.20827h.639a2.84158,2.84158,0,0,0,1.13163-.20153,2.15964,2.15964,0,0,0,.76389-.53481,2.11351,2.11351,0,0,0,.43749-.757,2.82436,2.82436,0,0,0,.13866-.88187V16.0306h1.13937v3.7919A3.92631,3.92631,0,0,1,43.32476,21.25985ZM43.6236,14.322H42.26289V13.12747H43.6236Z"/><path class="cls-1" d="M47.16489,20.04469a2.49339,2.49339,0,0,1-.72255-.10421,1.457,1.457,0,0,1-.60371-.354,1.76325,1.76325,0,0,1-.40994-.65968,2.952,2.952,0,0,1-.15243-1.02139v-6.472h1.13852V17.6557a1.425,1.425,0,0,0,.22908.84743.83771.83771,0,0,0,.72944.3195h.27731q.30617,0,.30573.59682,0,.62523-.30573.62524Z"/><path class="cls-1" d="M48.91486,18.82263a1.10768,1.10768,0,0,0,.78456-.26439.97188.97188,0,0,0,.2842-.75011V16.0306H51.123v1.83351a2.1929,2.1929,0,0,1-.56237,1.61821,2.11431,2.11431,0,0,1-1.56309.56237H47.65061a.238.238,0,0,1-.24286-.14555,1.15729,1.15729,0,0,1-.06287-.43749,1.37223,1.37223,0,0,1,.06287-.48658.23762.23762,0,0,1,.24286-.15244Zm.639,4.00031H48.19231V21.62845h1.36157Z"/><path class="cls-1" d="M53.59553,22.19771h.236a2.66171,2.66171,0,0,0,1.09028-.20153,2.1219,2.1219,0,0,0,.74323-.53481,2.16218,2.16218,0,0,0,.4306-.757,2.82436,2.82436,0,0,0,.13866-.88187V16.0306h1.13937v3.7919a3.92631,3.92631,0,0,1-.2575,1.43735,3.491,3.491,0,0,1-.70791,1.13938,3.2013,3.2013,0,0,1-1.05584.74322,3.24855,3.24855,0,0,1-1.31248.26353h-.37463ZM57.29011,14.322H55.92854V13.12747h1.36157Z"/><path class="cls-1" d="M59.05386,11.43347h1.13852v8.61122H59.05386Z"/><path class="cls-1" d="M70.87307,18.82263q1.06962,0,1.06962-1.0145V16.0306h1.13852v1.77753a1.05156,1.05156,0,0,0,.09731.4728.89849.89849,0,0,0,.24975.31262,1.02542,1.02542,0,0,0,.35482.1731,1.528,1.528,0,0,0,.40994.056h.24975a.23876.23876,0,0,1,.24286.14555,1.22322,1.22322,0,0,1,.06287.45127,1.33735,1.33735,0,0,1-.06287.4728.23832.23832,0,0,1-.24286.15244h-.27817a2.46769,2.46769,0,0,1-.95164-.18086,1.50746,1.50746,0,0,1-.72858-.70791,1.6662,1.6662,0,0,1-.73633.70791,2.17522,2.17522,0,0,1-.875.18086H66.05375a2.491,2.491,0,0,1-.97919-.174,1.74788,1.74788,0,0,1-1.04206-1.1454,2.81677,2.81677,0,0,1-.118-.81987V15.98926H65.053v1.63888a1.33717,1.33717,0,0,0,.26439.8681,1.23935,1.23935,0,0,0,.99986.32639Zm-2.68094-3.97275H66.92874V13.683h1.26339Zm1.86107,0H68.78981V13.683H70.0532Z"/><path class="cls-1" d="M76.27629,18.82263c.26869,0,.48572.00259.65279.00689a5.63509,5.63509,0,0,1,.56926.04823,5.12,5.12,0,0,1-1.02742-.47883,1.98119,1.98119,0,0,1-.56323-.51414,1.47071,1.47071,0,0,1-.24286-.58993,4.2527,4.2527,0,0,1-.05512-.72255,2.27827,2.27827,0,0,1,.14555-.77767,2.221,2.221,0,0,1,.43749-.72945,2.29254,2.29254,0,0,1,.72944-.53481A2.31894,2.31894,0,0,1,77.929,14.322a3.21691,3.21691,0,0,1,.97919.13952,1.74906,1.74906,0,0,1,.75011.465,2.20948,2.20948,0,0,1,.48572.84743,4.03354,4.03354,0,0,1,.174,1.27028v.66744a2.26609,2.26609,0,0,1-.64591,1.70777,2.84036,2.84036,0,0,1-2.035.62524H74.44278a.238.238,0,0,1-.24286-.14555,1.15729,1.15729,0,0,1-.06287-.43749,1.37223,1.37223,0,0,1,.06287-.48658.23761.23761,0,0,1,.24286-.15244Zm1.59754-3.264a1.19417,1.19417,0,0,0-.51414.1042,1.2644,1.2644,0,0,0-.38238.27042,1.06207,1.06207,0,0,0-.236.38238,1.30039,1.30039,0,0,0-.07665.43749,1.84459,1.84459,0,0,0,.04909.43749.87587.87587,0,0,0,.26353.40908,2.83646,2.83646,0,0,0,.65969.43835,11.7696,11.7696,0,0,0,1.22291.52017.97982.97982,0,0,0,.25664-.41682,1.74133,1.74133,0,0,0,.09043-.56926v-.41682a2.01591,2.01591,0,0,0-.29884-1.16608A1.17054,1.17054,0,0,0,77.87383,15.55866Zm.73547-2.50009H77.24859V11.86408H78.6093Z"/><path class="cls-1" d="M83.88764,20.04469a2.49339,2.49339,0,0,1-.72255-.10421,1.457,1.457,0,0,1-.60371-.354,1.76311,1.76311,0,0,1-.40993-.65968,2.95173,2.95173,0,0,1-.15244-1.02139v-6.472h1.13852V17.6557a1.42509,1.42509,0,0,0,.22908.84743.83773.83773,0,0,0,.72944.3195h.27731q.30617,0,.30573.59682,0,.62523-.30573.62524Z"/><path class="cls-1" d="M84.37336,20.04469a.238.238,0,0,1-.24286-.14555,1.15729,1.15729,0,0,1-.06287-.43749,1.37223,1.37223,0,0,1,.06287-.48658.23762.23762,0,0,1,.24286-.15244H87.5538a1.10991,1.10991,0,0,0,.78542-.26439.97188.97188,0,0,0,.2842-.75011V16.0306H89.7628v1.83351a2.17523,2.17523,0,0,1-.57012,1.61821,2.1185,2.1185,0,0,1-1.55534.56237Zm1.75,2.74983H84.8875V21.62845h1.23584Zm1.88862,0h-1.222V21.62845h1.222Z"/><path class="cls-1" d="M89.1789,22.19771h.236a2.66173,2.66173,0,0,0,1.09029-.20153,2.12186,2.12186,0,0,0,.74322-.53481,2.1622,2.1622,0,0,0,.43061-.757,2.82465,2.82465,0,0,0,.13865-.88187V16.0306H92.957v3.7919a3.92631,3.92631,0,0,1-.2575,1.43735,3.4909,3.4909,0,0,1-.70792,1.13938,3.20119,3.20119,0,0,1-1.05584.74322,3.24852,3.24852,0,0,1-1.31248.26353h-.37462Z"/><path class="cls-1" d="M99.48669,16.65583a3.05393,3.05393,0,0,1,.52706.8259,2.1321,2.1321,0,0,1,.16535.7992,1.71368,1.71368,0,0,1-.13779.69414,1.60956,1.60956,0,0,1-.39615.55548,1.86852,1.86852,0,0,1-.64763.37548,2.63806,2.63806,0,0,1-.88877.13866H94.304l-.0689-1.22206h3.70836a1.02654,1.02654,0,0,0,.68208-.20152.65818.65818,0,0,0,.23424-.521,1.04566,1.04566,0,0,0-.32036-.70791l-2.47-2.8196.88877-.83365Z"/><path class="cls-1" d="M143.82664,12.27181l-.00235-.00167a6.62467,6.62467,0,0,0-2.30895-.89149c-.38627-.09146-.8285-.17923-1.3337-.26031-.6362-.10285-1.37291-.195-2.22553-.27-.0392-.00369-.07906-.007-.11859-.01038-.17288-.40839-.35144-.82549-.54106-1.2647-.10084-.23451-.197-.47171-.2985-.72263-.01206-.03016-.02445-.06031-.03685-.09046a10.22128,10.22128,0,0,0-1.44661-2.71063,3.40988,3.40988,0,0,0-5.57738,0,10.22894,10.22894,0,0,0-1.44628,2.70862c-.01272.03082-.02512.06165-.03751.09247-.10151.25092-.19733.48812-.2985.72263-.18963.43921-.36785.85631-.54073,1.2647-.03986.00334-.07939.00669-.11859.01038-.8543.07538-1.59234.16751-2.22954.27069-.50353.08074-.94375.16852-1.32936.25964a6.62459,6.62459,0,0,0-2.30894.89149l-.00569.00368a.41614.41614,0,0,0-.16751.39331l.11155.83252c.1702,1.24627.35144,2.70929.64994,4.21721a23.36934,23.36934,0,0,0,.92264,3.41919c.15914.43854.33535.86971.53234,1.28881a10.10569,10.10569,0,0,0,18.1744-.13936q.22865-.502.42145-1.02348a34.417,34.417,0,0,0,1.56453-7.364l.16283-1.23453A.4151.4151,0,0,0,143.82664,12.27181Zm-11.10083-1.62417c-1.04861,0-2.00173.0191-2.86776.05361h-.00033c.04691-.10956.09448-.21944.14272-.33167.11022-.25562.21508-.51493.3166-.76552a13.81214,13.81214,0,0,1,.74306-1.63656,4.8073,4.8073,0,0,1,.43988-.654,1.42176,1.42176,0,0,1,2.45166,0,4.81294,4.81294,0,0,1,.43988.65463,13.82785,13.82785,0,0,1,.74307,1.63589c.10117.25059.206.5099.3166.76552.04824.11223.09547.22211.14238.33167C134.72754,10.66674,133.77442,10.64764,132.72581,10.64764Z"/></svg>