<?xml version="1.0" encoding="utf-8"?>
<!-- Generator: Adobe Illustrator 25.0.1, SVG Export Plug-In . SVG Version: 6.00 Build 0)  -->
<svg version="1.1" id="Layer_1" xmlns="http://www.w3.org/2000/svg" xmlns:xlink="http://www.w3.org/1999/xlink" x="0px" y="0px"
	 viewBox="0 0 153.5 32.6" style="enable-background:new 0 0 153.5 32.6;" xml:space="preserve">
<style type="text/css">
	.st0{fill:#050505;}
	.st1{fill:#020202;}
	.st2{fill:#FDFCFC;}
	.st3{opacity:0.3;enable-background:new    ;}
	.st4{fill:#FFFFFF;}
	.st5{fill:#FBFDFE;}
	.st6{fill:#F8FBFD;}
	.st7{opacity:0.4;}
</style>
<g>
	<path d="M16.3,32.6h120.8c9,0,16.3-7.3,16.3-16.3l0,0c0-9-7.3-16.3-16.3-16.3H16.3C7.3,0,0,7.3,0,16.3l0,0
		C0,25.3,7.3,32.6,16.3,32.6z"/>
	<g>
		<path class="st4" d="M23.1,22.1c0.4,0,0.8,0,1.1-0.1c0.3-0.1,0.6-0.2,0.8-0.3s0.3-0.3,0.4-0.5s0.1-0.4,0.1-0.5
			c0-0.2-0.1-0.4-0.2-0.5s-0.3-0.2-0.6-0.2h-2.2l0.1-1.2h5c0.2,0,0.3,0.2,0.3,0.6c0,0.4-0.1,0.6-0.3,0.6h-1.3
			c0.1,0.1,0.2,0.2,0.2,0.4c0,0.2,0.1,0.3,0.1,0.5c0,0.2-0.1,0.5-0.2,0.8s-0.3,0.6-0.6,0.8c-0.3,0.2-0.6,0.5-1,0.6s-1,0.2-1.6,0.2
			h-1.5c-1.1,0-1.9-0.3-2.5-1c-0.6-0.7-0.9-1.5-0.9-2.7v-2.5h1.2v2.5c0,0.7,0.2,1.3,0.6,1.8s1,0.7,1.8,0.7L23.1,22.1L23.1,22.1z"/>
		<path class="st4" d="M28.9,18.6c0.3,0,0.6-0.1,0.8-0.3s0.3-0.4,0.3-0.8v-1.8h1.2v1.9c0,0.7-0.2,1.3-0.6,1.7
			c-0.4,0.4-0.9,0.6-1.6,0.6h-1.4c-0.1,0-0.2-0.1-0.2-0.2s-0.1-0.2-0.1-0.4c0-0.2,0-0.4,0.1-0.5c0-0.1,0.1-0.2,0.2-0.2L28.9,18.6
			L28.9,18.6z M30.8,14.1h-1.4v-1.2h1.4V14.1z"/>
		<path class="st4" d="M34,22.1c0.4,0,0.7-0.1,1-0.2c0.3-0.1,0.5-0.3,0.7-0.5c0.2-0.2,0.3-0.4,0.4-0.7c0.1-0.3,0.2-0.6,0.2-0.8h-1.2
			c-0.5,0-0.9-0.1-1.2-0.2c-0.3-0.1-0.6-0.2-0.7-0.4s-0.3-0.4-0.4-0.7s-0.1-0.6-0.1-1s0.1-0.7,0.2-1c0.1-0.3,0.3-0.6,0.4-0.9
			c0.2-0.2,0.4-0.4,0.8-0.6s0.7-0.2,1-0.2c0.3,0,0.6,0.1,0.9,0.2c0.3,0.1,0.5,0.3,0.8,0.5s0.4,0.5,0.5,0.9s0.2,0.8,0.2,1.3v1.9
			c0,0.5-0.1,0.9-0.2,1.4c-0.2,0.4-0.4,0.8-0.7,1.2S36,22.8,35.6,23s-0.9,0.3-1.4,0.3h-1.5l-0.1-1.2H34z M33.9,17.5
			c0,0.4,0.1,0.7,0.3,0.9c0.2,0.2,0.6,0.3,1.1,0.3h1.1v-0.9c0-0.6-0.1-1-0.3-1.3c-0.2-0.3-0.6-0.4-1-0.4c-0.4,0-0.7,0.1-0.9,0.4
			C34,16.7,33.9,17.1,33.9,17.5z"/>
		<path class="st4" d="M44.2,16.4c0.2,0.3,0.4,0.6,0.5,0.8s0.2,0.6,0.2,0.8c0,0.2-0.1,0.5-0.1,0.7s-0.2,0.4-0.4,0.6
			c-0.2,0.2-0.4,0.3-0.7,0.4c-0.3,0.1-0.6,0.1-0.9,0.1h-3.9l-0.1-1.2h3.8c0.3,0,0.5-0.1,0.7-0.2c0.2-0.1,0.2-0.3,0.2-0.5
			c0-0.2-0.1-0.5-0.3-0.7l-2.5-2.9l0.9-0.8L44.2,16.4z"/>
		<path class="st4" d="M47.9,21.1c-0.2,0.4-0.4,0.8-0.7,1.2s-0.7,0.6-1.1,0.8s-0.9,0.3-1.3,0.3h-0.9l-0.1-1.2h0.7
			c0.4,0,0.8-0.1,1.2-0.2c0.3-0.1,0.6-0.3,0.8-0.6s0.3-0.5,0.4-0.8c0.1-0.3,0.1-0.6,0.1-0.9v-3.9h1.2v3.9
			C48.2,20.2,48.1,20.7,47.9,21.1z"/>
		<path class="st4" d="M51.8,19.9c-0.3,0-0.5,0-0.7-0.1s-0.4-0.2-0.6-0.4s-0.3-0.4-0.4-0.7c-0.1-0.3-0.2-0.6-0.2-1v-6.6h1.2v6.3
			c0,0.4,0.1,0.7,0.2,0.9s0.4,0.3,0.8,0.3h0.3c0.2,0,0.3,0.2,0.3,0.6c0,0.4-0.1,0.6-0.3,0.6H51.8z"/>
		<path class="st4" d="M53.6,18.6c0.3,0,0.6-0.1,0.8-0.3s0.3-0.4,0.3-0.8v-1.8h1.2v1.9c0,0.7-0.2,1.3-0.6,1.7
			c-0.4,0.4-0.9,0.6-1.6,0.6h-1.4c-0.1,0-0.2-0.1-0.2-0.2S52,19.5,52,19.3c0-0.2,0-0.4,0.1-0.5c0-0.1,0.1-0.2,0.2-0.2L53.6,18.6
			L53.6,18.6z M55.5,14.1h-1.4v-1.2h1.4V14.1z"/>
		<path class="st4" d="M57.6,11.1h1.2v8.8h-1.2V11.1z"/>
		<path class="st4" d="M64.1,21.1c-0.2,0.4-0.4,0.8-0.7,1.2s-0.7,0.6-1.1,0.8s-0.9,0.3-1.3,0.3h-0.9L60,22.1h0.7
			c0.4,0,0.8-0.1,1.2-0.2c0.3-0.1,0.6-0.3,0.8-0.6s0.3-0.5,0.4-0.8c0.1-0.3,0.1-0.6,0.1-0.9v-3.9h1.2v3.9
			C64.4,20.2,64.3,20.7,64.1,21.1z M64.4,14.1H63v-1.2h1.4V14.1z"/>
		<path class="st4" d="M66.1,11.1h1.2v8.8h-1.2V11.1z"/>
		<path class="st4" d="M78.2,18.6c0.7,0,1.1-0.3,1.1-1v-1.8h1.2v1.8c0,0.2,0,0.3,0.1,0.5c0.1,0.1,0.1,0.2,0.3,0.3
			c0.1,0.1,0.2,0.1,0.4,0.2s0.3,0.1,0.4,0.1h0.3c0.1,0,0.2,0.1,0.2,0.2s0.1,0.2,0.1,0.5c0,0.2,0,0.4-0.1,0.5c0,0.1-0.1,0.2-0.2,0.2
			h-0.3c-0.4,0-0.7-0.1-1-0.2S80,19.4,79.8,19c-0.2,0.4-0.5,0.6-0.8,0.7s-0.6,0.2-0.9,0.2h-4.9c-0.4,0-0.7-0.1-1-0.2
			s-0.5-0.3-0.7-0.5c-0.2-0.2-0.3-0.4-0.4-0.7c-0.1-0.3-0.1-0.5-0.1-0.8v-1.9h1.2v1.7c0,0.4,0.1,0.7,0.3,0.9c0.2,0.2,0.5,0.3,1,0.3
			L78.2,18.6L78.2,18.6z M75.4,14.6h-1.3v-1.2h1.3V14.6z M77.4,14.6h-1.3v-1.2h1.3V14.6z"/>
		<path class="st4" d="M83.7,18.6c0.3,0,0.5,0,0.7,0s0.4,0,0.6,0.1c-0.4-0.2-0.8-0.3-1.1-0.5c-0.3-0.2-0.4-0.3-0.6-0.5
			s-0.2-0.4-0.2-0.6S83,16.6,83,16.4c0-0.2,0.1-0.5,0.1-0.8c0.1-0.3,0.2-0.5,0.4-0.7s0.4-0.4,0.8-0.6c0.3-0.1,0.6-0.2,1-0.2
			c0.4,0,0.7,0.1,1,0.1s0.6,0.2,0.8,0.5c0.2,0.2,0.4,0.5,0.5,0.9s0.2,0.8,0.2,1.3v0.7c0,0.7-0.2,1.3-0.7,1.7s-1.1,0.6-2.1,0.6h-3.3
			c-0.1,0-0.2-0.1-0.2-0.2s-0.1-0.2-0.1-0.4c0-0.2,0-0.4,0.1-0.5c0-0.1,0.1-0.2,0.2-0.2L83.7,18.6L83.7,18.6z M85.4,15.3
			c-0.2,0-0.4,0-0.5,0.1c-0.1,0.1-0.3,0.2-0.4,0.3s-0.2,0.2-0.2,0.4s-0.1,0.3-0.1,0.4c0,0.2,0,0.3,0.1,0.4s0.1,0.3,0.3,0.4
			s0.4,0.3,0.7,0.4c0.3,0.2,0.7,0.3,1.2,0.5c0.1-0.1,0.2-0.2,0.3-0.4c0.1-0.2,0.1-0.4,0.1-0.6V17c0-0.5-0.1-0.9-0.3-1.2
			C86.2,15.5,85.9,15.3,85.4,15.3z M86.1,12.8h-1.4v-1.2h1.4V12.8z"/>
		<path class="st4" d="M91.5,19.9c-0.3,0-0.5,0-0.7-0.1s-0.4-0.2-0.6-0.4s-0.3-0.4-0.4-0.7c-0.1-0.3-0.2-0.6-0.2-1v-6.6h1.2v6.3
			c0,0.4,0.1,0.7,0.2,0.9s0.4,0.3,0.8,0.3H92c0.2,0,0.3,0.2,0.3,0.6c0,0.4-0.1,0.6-0.3,0.6H91.5z"/>
		<path class="st4" d="M92,19.9c-0.1,0-0.2-0.1-0.2-0.2s-0.1-0.2-0.1-0.4c0-0.2,0-0.4,0.1-0.5c0-0.1,0.1-0.2,0.2-0.2h3.2
			c0.3,0,0.6-0.1,0.8-0.3s0.3-0.4,0.3-0.8v-1.8h1.2v1.9c0,0.7-0.2,1.3-0.6,1.7c-0.4,0.4-0.9,0.6-1.6,0.6L92,19.9L92,19.9z
			 M93.8,22.7h-1.3v-1.2h1.3V22.7z M95.7,22.7h-1.2v-1.2h1.2V22.7z"/>
		<path class="st4" d="M96.9,22.1h0.2c0.4,0,0.8-0.1,1.1-0.2s0.6-0.3,0.8-0.6s0.4-0.5,0.4-0.8c0.1-0.3,0.1-0.6,0.1-0.9v-3.9h1.2v3.9
			c0,0.5-0.1,1-0.3,1.5c-0.2,0.4-0.4,0.8-0.7,1.2c-0.3,0.3-0.7,0.6-1.1,0.8s-0.9,0.3-1.3,0.3H97L96.9,22.1z"/>
		<path class="st4" d="M107.5,16.4c0.2,0.3,0.4,0.6,0.5,0.8s0.2,0.6,0.2,0.8c0,0.2-0.1,0.5-0.1,0.7s-0.2,0.4-0.4,0.6
			c-0.2,0.2-0.4,0.3-0.7,0.4c-0.3,0.1-0.6,0.1-0.9,0.1h-3.9l-0.1-1.2h3.8c0.3,0,0.5-0.1,0.7-0.2s0.2-0.3,0.2-0.5
			c0-0.2-0.1-0.5-0.3-0.7l-2.5-2.9l0.9-0.8L107.5,16.4z"/>
	</g>
	<g>
		<path class="st4" d="M120.4,17.5c-0.1-4.5,2.8-8.8,7.1-10.4c0.9-0.3,1.1-0.8,0.9-1.6c-0.1-0.4-0.5-1.1,0-1.4
			c0.5-0.3,0.8,0.3,1.2,0.6c0.4,0.2,0.6,0.2,0.9-0.1c0.1-0.2,0.3-0.3,0.5-0.4c0.4-0.5,0.8-0.5,1.3,0c1,0.9,0.8,1,2,0.1
			c0.2-0.1,0.3-0.3,0.6-0.2c0.3,0.1,0.2,0.4,0.2,0.7c-0.2,1.8-0.2,1.8,1.4,2.6c4.3,2.1,6.9,6.8,6.5,11.3c-0.5,5.1-4.4,9.1-9.1,10
			C126.8,30,120.5,24.7,120.4,17.5z"/>
		<path d="M133.7,7.5C133.8,7.5,133.8,7.5,133.7,7.5c0.7,0.1,1.3,0.2,1.9,0.4c2.1,0.6,3.6,1.9,4.6,3.8c2.1,4,2.1,8-0.2,11.9
			c-1.5,2.5-3.8,3.8-6.7,4c-1.2,0.1-2.1-0.5-2.7-1.5c-1-1.6-1.4-3.4-1.6-5.3c-0.4-3.4-0.3-6.7,0.7-9.9c0.1-0.3,0.2-0.5,0.3-0.8
			c0.6-1.4,1.4-2.4,3-2.6C133.5,7.4,133.5,7.4,133.7,7.5z"/>
		<path class="st4" d="M140.7,17.7c-0.2,2.7-0.8,5.3-2.9,7.2c-1.1,1-2.5,1.5-3.9,1.6c-0.9,0.1-1.5-0.3-2-1c-1-1.4-1.3-3.1-1.6-4.8
			c-0.4-2.8-0.2-5.6,0.5-8.4c0.1-0.4,0.2-0.8,0.4-1.2c0.9-2.3,2-2.8,4.3-2.1c2.5,0.8,3.9,2.6,4.7,4.9
			C140.5,15.1,140.6,16.4,140.7,17.7z"/>
		<circle cx="135.1" cy="12.1" r="1.3"/>
		<circle cx="132.8" cy="15" r="1.2"/>
		<circle cx="137.5" cy="14.2" r="1.1"/>
		<circle cx="134.9" cy="17.6" r="1.1"/>
		<circle cx="138.3" cy="17.6" r="1.1"/>
		<circle cx="132.8" cy="20.3" r="1.1"/>
		<circle cx="137.5" cy="20.8" r="1.1"/>
		<circle cx="135.1" cy="23" r="1.2"/>
	</g>
</g>
</svg>
