<?xml version="1.0" encoding="utf-8"?>
<!-- Generator: Adobe Illustrator 25.0.1, SVG Export Plug-In . SVG Version: 6.00 Build 0)  -->
<svg version="1.1" id="Layer_1" xmlns="http://www.w3.org/2000/svg" xmlns:xlink="http://www.w3.org/1999/xlink" x="0px" y="0px"
	 viewBox="0 0 153.5 32.6" style="enable-background:new 0 0 153.5 32.6;" xml:space="preserve">
<style type="text/css">
	.st0{fill:#050505;}
	.st1{fill:#020202;}
	.st2{fill:#FDFCFC;}
	.st3{opacity:0.3;enable-background:new    ;}
	.st4{fill:#FFFFFF;}
	.st5{fill:#FBFDFE;}
	.st6{fill:#F8FBFD;}
	.st7{opacity:0.4;}
</style>
<g>
	<path d="M16.3,32.6h120.8c9,0,16.3-7.3,16.3-16.3l0,0c0-9-7.3-16.3-16.3-16.3H16.3C7.3,0,0,7.3,0,16.3l0,0
		C0,25.3,7.3,32.6,16.3,32.6z"/>
	<g>
		<path class="st4" d="M22.3,19.9c-0.4,0-0.7-0.1-1-0.2s-0.5-0.3-0.7-0.5c-0.2-0.2-0.3-0.4-0.4-0.7c-0.1-0.3-0.1-0.5-0.1-0.8v-1.9
			h1.2v1.7c0,0.4,0.1,0.7,0.3,0.9s0.5,0.3,1,0.3h4.7c0.7,0,1.1-0.3,1.1-1v-1.8h1.2v2c0,0.3-0.1,0.6-0.2,0.9s-0.3,0.5-0.5,0.6
			s-0.4,0.3-0.7,0.4s-0.5,0.1-0.8,0.1L22.3,19.9L22.3,19.9z M24.5,22.7h-1.3v-1.2h1.3V22.7z M25.5,24.5h-1.3v-1.2h1.3V24.5z
			 M26.4,22.7h-1.3v-1.2h1.3V22.7z"/>
		<path class="st4" d="M31.2,11.1h1.2v8.8h-1.2V11.1z"/>
		<path class="st4" d="M41.3,18.7c0.7,0,1.1-0.3,1.1-1v-1.8h1.2v1.8c0,0.2,0,0.4,0.1,0.5c0.1,0.1,0.2,0.2,0.3,0.3
			c0.1,0.1,0.2,0.1,0.4,0.2s0.3,0.1,0.4,0.1H45c0.1,0,0.2,0.1,0.2,0.1c0,0.1,0.1,0.2,0.1,0.5c0,0.2,0,0.4-0.1,0.5
			c0,0.1-0.1,0.2-0.2,0.2h-0.3c-0.3,0-0.7-0.1-1-0.2S43.2,19.4,43,19c-0.2,0.4-0.5,0.6-0.8,0.7s-0.6,0.2-0.9,0.2h-4.9
			c-0.4,0-0.7-0.1-1-0.2s-0.5-0.3-0.7-0.5c-0.2-0.2-0.3-0.4-0.4-0.7c-0.1-0.3-0.1-0.5-0.1-0.8v-1.9h1.2v1.7c0,0.4,0.1,0.7,0.3,0.9
			s0.5,0.3,1,0.3L41.3,18.7L41.3,18.7z M39.6,22.7h-1.4v-1.2h1.4V22.7z"/>
		<path class="st4" d="M46,18.7c0.7,0,1.1-0.3,1.1-1v-1.8h1.2v1.8c0,0.2,0,0.4,0.1,0.5c0.1,0.1,0.1,0.2,0.2,0.3
			c0.1,0.1,0.2,0.1,0.4,0.2c0.1,0,0.3,0.1,0.4,0.1h0.4c0.2,0,0.3,0.2,0.3,0.6c0,0.4-0.1,0.6-0.3,0.6h-0.4c-0.3,0-0.7-0.1-1-0.2
			c-0.3-0.1-0.6-0.4-0.8-0.7c-0.2,0.4-0.5,0.6-0.8,0.7s-0.6,0.2-0.9,0.2h-1c-0.1,0-0.2-0.1-0.2-0.1c0-0.1-0.1-0.2-0.1-0.4
			c0-0.2,0-0.4,0.1-0.5c0-0.1,0.1-0.2,0.2-0.2H46z M47,22.7h-1.3v-1.2H47V22.7z M48.9,22.7h-1.2v-1.2h1.2V22.7z"/>
		<path class="st4" d="M50.4,18.7c0.8,0,1.1-0.3,1.1-1v-1.8h1.2v1.8c0,0.2,0,0.4,0.1,0.5c0.1,0.1,0.2,0.2,0.3,0.3
			c0.1,0.1,0.2,0.1,0.4,0.2s0.3,0.1,0.4,0.1c0.8,0,1.2-0.3,1.2-1v-1.8h1.2v1.8c0,0.4,0.1,0.7,0.3,0.8c0.2,0.1,0.4,0.2,0.7,0.2
			c0.3,0,0.6-0.1,0.8-0.3c0.2-0.2,0.3-0.4,0.3-0.8v-1.8h1.2v1.9c0,0.7-0.2,1.3-0.6,1.6c-0.4,0.4-0.9,0.6-1.6,0.6
			c-0.3,0-0.7-0.1-0.9-0.2c-0.3-0.1-0.6-0.4-0.8-0.7c-0.2,0.4-0.5,0.6-0.8,0.7c-0.3,0.1-0.6,0.2-1,0.2c-0.4,0-0.7-0.1-1-0.2
			S52.2,19.4,52,19c-0.2,0.4-0.5,0.6-0.8,0.7c-0.3,0.1-0.6,0.2-0.9,0.2h-0.5c-0.1,0-0.2-0.1-0.2-0.1c0-0.1-0.1-0.2-0.1-0.4
			c0-0.2,0-0.4,0.1-0.5c0-0.1,0.1-0.2,0.2-0.2L50.4,18.7L50.4,18.7z"/>
		<path class="st4" d="M64.5,21.1c-0.2,0.4-0.4,0.8-0.7,1.2s-0.7,0.6-1.1,0.8s-0.9,0.3-1.3,0.3h-0.9l-0.1-1.2h0.7
			c0.4,0,0.8-0.1,1.2-0.2c0.3-0.1,0.6-0.3,0.8-0.6s0.3-0.5,0.4-0.8c0.1-0.3,0.1-0.6,0.1-0.9v-3.9h1.2v3.9
			C64.8,20.2,64.7,20.7,64.5,21.1z M64.8,14.1h-1.4v-1.2h1.4V14.1z"/>
		<path class="st4" d="M66.5,11.1h1.2v8.8h-1.2V11.1z"/>
		<path class="st4" d="M78.6,18.7c0.7,0,1.1-0.3,1.1-1v-1.8h1.2v1.8c0,0.2,0,0.4,0.1,0.5c0.1,0.1,0.1,0.2,0.3,0.3
			c0.1,0.1,0.2,0.1,0.4,0.2s0.3,0.1,0.4,0.1h0.3c0.1,0,0.2,0.1,0.2,0.1c0,0.1,0.1,0.2,0.1,0.5c0,0.2,0,0.4-0.1,0.5
			c0,0.1-0.1,0.2-0.2,0.2H82c-0.4,0-0.7-0.1-1-0.2s-0.6-0.4-0.8-0.7c-0.2,0.4-0.5,0.6-0.8,0.7s-0.6,0.2-0.9,0.2h-4.9
			c-0.4,0-0.7-0.1-1-0.2s-0.5-0.3-0.7-0.5c-0.2-0.2-0.3-0.4-0.4-0.7c-0.1-0.3-0.1-0.5-0.1-0.8v-1.9h1.2v1.7c0,0.4,0.1,0.7,0.3,0.9
			s0.5,0.3,1,0.3L78.6,18.7L78.6,18.7z M75.9,14.6h-1.3v-1.2h1.3V14.6z M77.8,14.6h-1.3v-1.2h1.3V14.6z"/>
		<path class="st4" d="M84.1,18.7c0.3,0,0.5,0,0.7,0s0.4,0,0.6,0.1c-0.4-0.2-0.8-0.3-1.1-0.5c-0.3-0.2-0.4-0.3-0.6-0.5
			s-0.2-0.4-0.2-0.6s-0.1-0.5-0.1-0.7c0-0.2,0.1-0.5,0.1-0.8c0.1-0.3,0.2-0.5,0.4-0.7s0.4-0.4,0.8-0.6c0.3-0.1,0.6-0.2,1-0.2
			c0.4,0,0.7,0.1,1,0.1s0.6,0.2,0.8,0.5c0.2,0.2,0.4,0.5,0.5,0.9s0.2,0.8,0.2,1.3v0.7c0,0.7-0.2,1.3-0.7,1.7s-1.1,0.6-2.1,0.6h-3.3
			c-0.1,0-0.2-0.1-0.2-0.1c0-0.1-0.1-0.2-0.1-0.4c0-0.2,0-0.4,0.1-0.5c0-0.1,0.1-0.2,0.2-0.2L84.1,18.7L84.1,18.7z M85.8,15.3
			c-0.2,0-0.4,0-0.5,0.1c-0.1,0.1-0.3,0.2-0.4,0.3s-0.2,0.2-0.2,0.4s-0.1,0.3-0.1,0.4s0,0.3,0.1,0.4s0.1,0.3,0.3,0.4
			s0.4,0.3,0.7,0.4s0.7,0.3,1.2,0.5c0.1-0.1,0.2-0.2,0.3-0.4c0.1-0.2,0.1-0.4,0.1-0.6V17c0-0.5-0.1-0.9-0.3-1.2
			C86.6,15.5,86.3,15.3,85.8,15.3z M86.5,12.8h-1.4v-1.2h1.4V12.8z"/>
		<path class="st4" d="M91.9,19.9c-0.3,0-0.5,0-0.7-0.1s-0.4-0.2-0.6-0.4s-0.3-0.4-0.4-0.7c-0.1-0.3-0.2-0.6-0.2-1v-6.6h1.2v6.3
			c0,0.4,0.1,0.6,0.2,0.9s0.4,0.3,0.8,0.3h0.3c0.2,0,0.3,0.2,0.3,0.6c0,0.4-0.1,0.6-0.3,0.6H91.9z"/>
		<path class="st4" d="M92.4,19.9c-0.1,0-0.2-0.1-0.2-0.1c0-0.1-0.1-0.2-0.1-0.4c0-0.2,0-0.4,0.1-0.5c0-0.1,0.1-0.2,0.2-0.2h3.2
			c0.3,0,0.6-0.1,0.8-0.3c0.2-0.2,0.3-0.4,0.3-0.8v-1.8h1.2v1.9c0,0.7-0.2,1.3-0.6,1.6c-0.4,0.4-0.9,0.6-1.6,0.6L92.4,19.9
			L92.4,19.9z M94.2,22.7H93v-1.2h1.3V22.7z M96.2,22.7h-1.2v-1.2h1.2V22.7z"/>
		<path class="st4" d="M97.3,22.1h0.2c0.4,0,0.8-0.1,1.1-0.2s0.6-0.3,0.8-0.6s0.4-0.5,0.4-0.8c0.1-0.3,0.1-0.6,0.1-0.9v-3.9h1.2v3.9
			c0,0.5-0.1,1-0.3,1.5c-0.2,0.4-0.4,0.8-0.7,1.2c-0.3,0.3-0.7,0.6-1.1,0.8s-0.9,0.3-1.3,0.3h-0.4L97.3,22.1z"/>
		<path class="st4" d="M107.9,16.4c0.2,0.3,0.4,0.6,0.5,0.8s0.2,0.6,0.2,0.8c0,0.2-0.1,0.5-0.1,0.7s-0.2,0.4-0.4,0.6
			c-0.2,0.2-0.4,0.3-0.7,0.4c-0.3,0.1-0.6,0.1-0.9,0.1h-3.9l-0.1-1.2h3.8c0.3,0,0.5-0.1,0.7-0.2s0.2-0.3,0.2-0.5
			c0-0.2-0.1-0.5-0.3-0.7l-2.5-2.9l0.9-0.9L107.9,16.4z"/>
	</g>
	<g>
		<path class="st4" d="M137.7,21.4c0.3-1.6,0.1-3-0.5-4.4c-0.6-1.2-1.6-2.1-2.6-2.9c-2-1.5-4.3-2.2-6.8-2.3c-0.1,0-0.2,0-0.3,0
			c0,0,0-0.1,0-0.1c0.7-0.2,1.3-0.5,2-0.7c2.7-0.7,5.4-0.3,8,0.6c0.4,0.1,0.8,0.3,1.2,0.5c0.1,0.1,0.2,0.2,0.3,0.3
			c0.5,2.6,0.5,5.2-0.6,7.8C138.2,20.5,137.9,20.9,137.7,21.4z"/>
		<path class="st4" d="M139.7,15.6c1,1.6,1.2,3.3,1.2,5c0,2.2-0.6,4.2-1.5,6.2c-0.1,0.1-0.2,0.2-0.3,0.3c-3,0.6-5.9,0.4-8.6-0.9
			c0,0-0.1-0.1-0.1-0.1c0.3,0,0.5,0.1,0.7,0.1c0.2,0,0.4,0,0.6,0c2,0,3.7-0.7,4.9-2.2c0.8-1,1.5-2.2,2.1-3.4c0.7-1.4,1-3,1.1-4.6
			C139.6,15.8,139.6,15.7,139.7,15.6z"/>
		<path class="st4" d="M123.3,23.6c-0.2-0.7-0.5-1.4-0.6-2.2c-0.5-3,0-5.8,1.2-8.6c0.1-0.1,0.2-0.2,0.3-0.3c2.8-0.6,5.6-0.6,8.3,0.8
			c0,0,0,0,0.1,0.1c-0.4,0-0.8,0-1.2,0c-2.4,0.2-4.2,1.6-5.6,3.4c-1.4,1.9-2.1,4-2.2,6.4c0,0.1,0,0.3,0,0.4
			C123.4,23.6,123.4,23.6,123.3,23.6z"/>
		<path class="st4" d="M135.1,28c-0.8,0.5-1.8,0.7-2.7,0.8c-2.7,0.3-5.2-0.2-7.7-1.3c-0.1-0.1-0.3-0.2-0.4-0.4
			c-0.7-2.9-0.6-5.8,0.8-8.6c0-0.1,0.1-0.1,0.1-0.2c-0.2,1.2-0.3,2.4,0.2,3.4c0.3,0.8,0.7,1.5,1.2,2.1c2.1,2.5,4.9,3.8,8.2,4.1
			C135,28,135,28,135.1,28z"/>
		<path class="st4" d="M131.4,8.6c0-2.9,3.4-5.2,5.8-4.9C137.4,6.4,134.1,9.2,131.4,8.6z"/>
	</g>
</g>
</svg>
