<?xml version="1.0" encoding="UTF-8" standalone="no"?>
<svg
   xmlns:dc="http://purl.org/dc/elements/1.1/"
   xmlns:cc="http://creativecommons.org/ns#"
   xmlns:rdf="http://www.w3.org/1999/02/22-rdf-syntax-ns#"
   xmlns:svg="http://www.w3.org/2000/svg"
   xmlns="http://www.w3.org/2000/svg"
   viewBox="0 0 204.62666 43.52"
   height="43.52"
   width="204.62666"
   xml:space="preserve"
   id="svg2"
   version="1.1"><metadata
     id="metadata8"><rdf:RDF><cc:Work
         rdf:about=""><dc:format>image/svg+xml</dc:format><dc:type
           rdf:resource="http://purl.org/dc/dcmitype/StillImage" /></cc:Work></rdf:RDF></metadata><defs
     id="defs6"><clipPath
       id="clipPath18"
       clipPathUnits="userSpaceOnUse"><path
         id="path16"
         d="M 0,32.64 H 153.47 V 0 H 0 Z" /></clipPath></defs><g
     transform="matrix(1.3333333,0,0,-1.3333333,0,43.52)"
     id="g10"><g
       id="g12"><g
         clip-path="url(#clipPath18)"
         id="g14"><g
           transform="translate(16.3203,-2e-4)"
           id="g20"><path
             id="path22"
             style="fill:#000000;fill-opacity:1;fill-rule:nonzero;stroke:none"
             d="m 0,0 h 120.83 c 9.01,0 16.319,7.31 16.319,16.32 0,9.01 -7.309,16.32 -16.319,16.32 H 0 c -9.011,0 -16.32,-7.31 -16.32,-16.32 C -16.32,7.31 -9.011,0 0,0" /></g><path
           id="path24"
           style="fill:#ffffff;fill-opacity:1;fill-rule:nonzero;stroke:none"
           d="m 29.704,18.661 h -1.251 v -1.155 h 1.251 z" /><path
           id="path26"
           style="fill:#ffffff;fill-opacity:1;fill-rule:nonzero;stroke:none"
           d="M 27.862,18.661 H 26.61 v -1.155 h 1.252 z" /><path
           id="path28"
           style="fill:#ffffff;fill-opacity:1;fill-rule:nonzero;stroke:none"
           d="m 42.504,9.642 h 1.224 v 1.155 h -1.224 z" /><g
           transform="translate(44.7588,14.5774)"
           id="g30"><path
             id="path32"
             style="fill:#ffffff;fill-opacity:1;fill-rule:nonzero;stroke:none"
             d="M 0,0 C 0,-0.321 -0.094,-0.568 -0.281,-0.742 -0.47,-0.917 -0.729,-1.003 -1.059,-1.003 H -2.31 c -0.165,0 -0.316,0.004 -0.453,0.013 -0.137,0.01 -0.275,0.042 -0.413,0.096 -0.137,0.056 -0.291,0.138 -0.46,0.248 -0.17,0.11 -0.369,0.266 -0.598,0.467 -0.23,0.202 -0.502,0.456 -0.819,0.763 -0.315,0.308 -0.694,0.681 -1.134,1.121 l -2.268,2.282 3.712,1.416 -0.261,1.128 -4.564,-1.76 V 3.52 l 2.804,-2.791 c 0.21,-0.211 0.341,-0.396 0.392,-0.557 0.05,-0.16 0.075,-0.314 0.075,-0.461 0,-0.201 -0.063,-0.371 -0.192,-0.508 -0.128,-0.138 -0.363,-0.206 -0.701,-0.206 h -3.52 -0.247 c -0.138,0 -0.273,0.018 -0.406,0.055 -0.133,0.036 -0.25,0.094 -0.351,0.171 -0.1,0.078 -0.183,0.181 -0.247,0.31 -0.064,0.128 -0.097,0.284 -0.097,0.467 v 1.76 h -1.127 V 0 c 0,-0.669 -0.353,-1.003 -1.058,-1.003 h -4.51 c -0.486,0 -0.816,0.107 -0.99,0.323 -0.174,0.215 -0.261,0.501 -0.261,0.859 v 1.622 h -1.128 v -1.897 c 0,-0.284 0.039,-0.555 0.117,-0.811 0.078,-0.257 0.202,-0.482 0.371,-0.674 0.17,-0.192 0.39,-0.346 0.661,-0.461 0.27,-0.114 0.592,-0.171 0.968,-0.171 h 4.772 c 0.302,0 0.591,0.059 0.866,0.178 0.274,0.119 0.518,0.353 0.729,0.702 0.192,-0.349 0.432,-0.583 0.721,-0.702 0.289,-0.119 0.603,-0.178 0.942,-0.178 h 0.275 3.644 c 0.256,0 0.495,0.029 0.714,0.089 0.22,0.06 0.413,0.151 0.578,0.275 0.165,0.124 0.297,0.282 0.399,0.474 0.101,0.193 0.15,0.427 0.15,0.702 0.33,-0.33 0.62,-0.597 0.867,-0.798 0.248,-0.202 0.476,-0.358 0.687,-0.467 0.211,-0.11 0.424,-0.184 0.64,-0.22 0.215,-0.037 0.456,-0.055 0.721,-0.055 h 1.334 c 0.66,0 1.175,0.185 1.547,0.556 0.371,0.372 0.557,0.906 0.557,1.602 V 1.76 L 0,1.76 Z" /></g><path
           id="path34"
           style="fill:#ffffff;fill-opacity:1;fill-rule:nonzero;stroke:none"
           d="m 44.388,9.642 h 1.21 v 1.155 h -1.21 z" /><g
           transform="translate(54.3282,13.8972)"
           id="g36"><path
             id="path38"
             style="fill:#ffffff;fill-opacity:1;fill-rule:nonzero;stroke:none"
             d="m 0,0 c -0.201,-0.216 -0.509,-0.323 -0.921,-0.323 -0.349,0 -0.635,0.1 -0.859,0.302 -0.225,0.202 -0.337,0.504 -0.337,0.908 0,0.448 0.098,0.797 0.296,1.045 0.197,0.247 0.502,0.371 0.914,0.371 0.449,0 0.762,-0.129 0.941,-0.385 C 0.214,1.661 0.303,1.331 0.303,0.928 0.303,0.524 0.202,0.215 0,0 M 0.825,2.812 C 0.633,3.031 0.395,3.203 0.11,3.327 -0.174,3.451 -0.504,3.513 -0.88,3.513 -1.604,3.513 -2.17,3.286 -2.577,2.832 -2.985,2.378 -3.189,1.762 -3.189,0.983 V 0.557 c 0,-0.587 -0.349,-0.88 -1.045,-0.88 h -0.179 -0.275 c -0.331,0 -0.571,0.105 -0.722,0.316 -0.152,0.211 -0.227,0.49 -0.227,0.839 V 6.991 H -6.765 V 0.584 c 0,-0.403 0.051,-0.74 0.152,-1.01 0.1,-0.271 0.236,-0.489 0.405,-0.654 0.17,-0.165 0.369,-0.281 0.599,-0.35 0.228,-0.069 0.467,-0.103 0.714,-0.103 h 0.482 0.179 c 0.128,0 0.263,0.011 0.405,0.034 0.142,0.023 0.277,0.069 0.406,0.138 0.128,0.069 0.252,0.165 0.371,0.288 0.119,0.124 0.22,0.282 0.303,0.475 0.183,-0.339 0.441,-0.58 0.776,-0.722 0.335,-0.142 0.686,-0.213 1.052,-0.213 0.724,0 1.292,0.222 1.705,0.667 0.412,0.444 0.618,1.07 0.618,1.876 0,0.367 -0.048,0.704 -0.143,1.011 -0.097,0.307 -0.241,0.57 -0.434,0.791" /></g><g
           transform="translate(60.9141,12.5842)"
           id="g40"><path
             id="path42"
             style="fill:#ffffff;fill-opacity:1;fill-rule:nonzero;stroke:none"
             d="m 0,0 c 0,-0.303 -0.047,-0.594 -0.138,-0.873 -0.091,-0.28 -0.236,-0.53 -0.433,-0.75 -0.198,-0.22 -0.45,-0.396 -0.756,-0.529 -0.307,-0.133 -0.681,-0.199 -1.12,-0.199 H -3.08 l 0.068,-1.196 h 0.839 c 0.468,0 0.902,0.087 1.307,0.261 0.403,0.174 0.751,0.419 1.045,0.735 0.293,0.317 0.524,0.693 0.694,1.128 C 1.042,-0.988 1.127,-0.514 1.127,0 V 3.753 H 0 Z" /></g><path
           id="path44"
           style="fill:#ffffff;fill-opacity:1;fill-rule:nonzero;stroke:none"
           d="m 60.735,18.029 h 1.347 v 1.183 h -1.347 z" /><path
           id="path46"
           style="fill:#ffffff;fill-opacity:1;fill-rule:nonzero;stroke:none"
           d="m 63.718,12.364 h 1.128 v 8.524 h -1.128 z" /><path
           id="path48"
           style="fill:#ffffff;fill-opacity:1;fill-rule:nonzero;stroke:none"
           d="m 72.765,18.661 h -1.252 v -1.155 h 1.252 z" /><path
           id="path50"
           style="fill:#ffffff;fill-opacity:1;fill-rule:nonzero;stroke:none"
           d="m 74.606,18.661 h -1.251 v -1.155 h 1.251 z" /><path
           id="path52"
           style="fill:#ffffff;fill-opacity:1;fill-rule:nonzero;stroke:none"
           d="m 83.076,20.462 h -1.348 v -1.183 h 1.348 z" /><g
           transform="translate(83.667,14.8113)"
           id="g54"><path
             id="path56"
             style="fill:#ffffff;fill-opacity:1;fill-rule:nonzero;stroke:none"
             d="m 0,0 c 0,-0.202 -0.03,-0.39 -0.089,-0.563 -0.06,-0.175 -0.144,-0.312 -0.255,-0.413 -0.513,0.192 -0.917,0.364 -1.21,0.516 -0.293,0.151 -0.51,0.295 -0.653,0.433 -0.142,0.137 -0.229,0.272 -0.261,0.405 -0.032,0.133 -0.048,0.277 -0.048,0.433 0,0.147 0.025,0.291 0.076,0.433 0.05,0.142 0.127,0.268 0.233,0.379 0.105,0.109 0.231,0.199 0.379,0.268 0.146,0.068 0.315,0.103 0.508,0.103 0.486,0 0.827,-0.142 1.024,-0.427 C -0.099,1.283 0,0.898 0,0.413 Z M 0.447,2.619 C 0.24,2.834 -0.007,2.988 -0.296,3.08 -0.584,3.171 -0.907,3.217 -1.265,3.217 -1.641,3.217 -1.973,3.148 -2.262,3.011 -2.551,2.874 -2.791,2.697 -2.983,2.482 -3.176,2.266 -3.32,2.025 -3.417,1.76 -3.513,1.494 -3.561,1.237 -3.561,0.99 c 0,-0.266 0.018,-0.504 0.055,-0.715 0.036,-0.211 0.117,-0.405 0.24,-0.584 0.124,-0.179 0.31,-0.349 0.558,-0.509 0.247,-0.161 0.586,-0.319 1.017,-0.474 -0.211,0.027 -0.399,0.043 -0.564,0.048 -0.165,0.004 -0.38,0.007 -0.646,0.007 h -1.815 -0.247 c -0.138,0 -0.273,0.018 -0.406,0.055 -0.133,0.036 -0.25,0.094 -0.351,0.171 -0.1,0.078 -0.183,0.181 -0.247,0.31 -0.064,0.128 -0.096,0.284 -0.096,0.467 v 1.76 H -7.19 v -1.76 c 0,-0.669 -0.354,-1.003 -1.059,-1.003 h -4.51 c -0.486,0 -0.816,0.107 -0.99,0.323 -0.174,0.215 -0.261,0.501 -0.261,0.859 v 1.622 h -1.128 V -0.33 c 0,-0.284 0.039,-0.555 0.117,-0.811 0.079,-0.257 0.202,-0.482 0.372,-0.674 0.17,-0.192 0.389,-0.346 0.66,-0.46 0.27,-0.115 0.593,-0.172 0.968,-0.172 h 4.772 c 0.302,0 0.591,0.059 0.866,0.178 0.275,0.12 0.518,0.353 0.729,0.702 0.192,-0.349 0.432,-0.582 0.721,-0.702 0.289,-0.119 0.603,-0.178 0.942,-0.178 h 0.275 3.162 c 0.917,0 1.588,0.206 2.015,0.618 0.426,0.413 0.639,0.976 0.639,1.691 v 0.66 C 1.1,1.018 1.043,1.437 0.928,1.78 0.813,2.124 0.653,2.404 0.447,2.619" /></g><g
           transform="translate(93.5518,12.9207)"
           id="g58"><path
             id="path60"
             style="fill:#ffffff;fill-opacity:1;fill-rule:nonzero;stroke:none"
             d="M 0,0 C 0.376,0.372 0.564,0.905 0.564,1.602 V 3.417 H -0.563 V 1.657 C -0.563,1.336 -0.657,1.088 -0.845,0.915 -1.033,0.74 -1.292,0.653 -1.622,0.653 H -4.77 -4.771 -5.045 c -0.33,0 -0.57,0.105 -0.722,0.316 -0.151,0.211 -0.226,0.49 -0.226,0.839 v 6.16 H -7.121 V 1.561 c 0,-0.404 0.051,-0.741 0.151,-1.011 0.101,-0.27 0.237,-0.488 0.406,-0.653 0.169,-0.165 0.369,-0.282 0.598,-0.351 0.229,-0.068 0.468,-0.103 0.715,-0.103 h 0.48 0.001 3.231 c 0.65,0 1.163,0.186 1.539,0.557" /></g><path
           id="path62"
           style="fill:#ffffff;fill-opacity:1;fill-rule:nonzero;stroke:none"
           d="m 91.174,9.642 h 1.21 v 1.155 h -1.21 z" /><path
           id="path64"
           style="fill:#ffffff;fill-opacity:1;fill-rule:nonzero;stroke:none"
           d="m 89.29,9.642 h 1.224 v 1.155 H 89.29 Z" /><g
           transform="translate(96.1514,12.5842)"
           id="g66"><path
             id="path68"
             style="fill:#ffffff;fill-opacity:1;fill-rule:nonzero;stroke:none"
             d="m 0,0 c 0,-0.303 -0.047,-0.594 -0.138,-0.873 -0.091,-0.28 -0.234,-0.53 -0.426,-0.75 -0.193,-0.22 -0.438,-0.396 -0.736,-0.529 -0.298,-0.133 -0.657,-0.199 -1.079,-0.199 h -0.233 l 0.068,-1.196 h 0.371 c 0.468,0 0.901,0.087 1.3,0.261 0.398,0.174 0.746,0.419 1.045,0.735 0.297,0.317 0.531,0.693 0.701,1.128 C 1.042,-0.988 1.127,-0.514 1.127,0 V 3.753 H 0 Z" /></g><g
           transform="translate(104.2627,14.9007)"
           id="g70"><path
             id="path72"
             style="fill:#ffffff;fill-opacity:1;fill-rule:nonzero;stroke:none"
             d="M 0,0 C -0.11,0.271 -0.284,0.543 -0.522,0.818 L -3.025,3.706 -3.905,2.88 -1.458,0.089 c 0.211,-0.229 0.316,-0.463 0.316,-0.701 0,-0.211 -0.078,-0.383 -0.233,-0.515 -0.156,-0.133 -0.381,-0.2 -0.674,-0.2 H -5.72 l 0.069,-1.21 h 3.767 c 0.33,0 0.623,0.046 0.88,0.138 0.257,0.091 0.47,0.215 0.64,0.371 0.169,0.156 0.3,0.339 0.391,0.55 0.092,0.211 0.138,0.44 0.138,0.687 C 0.165,-0.534 0.109,-0.271 0,0" /></g><g
           transform="translate(121.1905,16.386)"
           id="g74"><path
             id="path76"
             style="fill:#ffffff;fill-opacity:1;fill-rule:nonzero;stroke:none"
             d="M 0,0 C 0.002,6.527 5.293,11.814 11.823,11.816 18.345,11.817 23.641,6.529 23.658,0 23.676,-6.584 18.352,-11.9 11.758,-11.881 5.243,-11.863 -0.002,-6.563 0,0" /></g><g
           transform="translate(125.545,15.7097)"
           id="g78"><path
             id="path80"
             style="fill:#000000;fill-opacity:1;fill-rule:nonzero;stroke:none"
             d="m 0,0 c 0.03,0.769 -0.105,1.701 0.068,2.61 0.617,3.227 4.345,4.532 6.916,2.429 0.257,-0.21 0.407,-0.351 0.74,-0.057 1.327,1.17 2.863,1.412 4.476,0.734 1.661,-0.698 2.487,-2.054 2.558,-3.823 0.061,-1.513 0.03,-3.03 0.012,-4.545 -0.009,-0.714 -0.455,-1.16 -1.078,-1.167 -0.662,-0.007 -1.071,0.436 -1.078,1.215 -0.011,1.471 0.007,2.942 -0.01,4.414 C 12.595,2.675 12.188,3.32 11.405,3.704 10.662,4.069 9.947,3.962 9.3,3.479 8.715,3.043 8.464,2.425 8.464,1.702 8.465,0.516 8.468,-0.67 8.463,-1.856 8.461,-2.62 8.06,-3.097 7.42,-3.113 6.738,-3.13 6.341,-2.666 6.332,-1.849 6.317,-0.576 6.356,0.7 6.268,1.967 6.185,3.148 5.249,3.957 4.186,3.918 3.056,3.877 2.177,2.956 2.158,1.739 2.137,0.312 2.156,-1.116 2.151,-2.543 2.148,-3.37 1.755,-3.829 1.072,-3.819 0.385,-3.81 0.008,-3.361 0.001,-2.524 -0.006,-1.734 0,-0.943 0,0" /></g><g
           transform="translate(129.8633,11.4729)"
           id="g82"><path
             id="path84"
             style="fill:#000000;fill-opacity:1;fill-rule:nonzero;stroke:none"
             d="M 0,0 C 2.108,-1.461 4.225,-1.413 6.352,-0.023 6.159,-1.003 4.594,-1.843 3.086,-1.784 1.483,-1.721 0.121,-0.934 0,0" /></g></g></g></g></svg>